<svg width="128" height="128" viewBox="0 0 128 128" fill="none" xmlns="http://www.w3.org/2000/svg">
  <defs>
    <linearGradient id="at-face" x1="0" y1="0" x2="0" y2="1">
      <stop offset="0%" stop-color="#E8ECF1"/>
      <stop offset="100%" stop-color="#CBD1DA"/>
    </linearGradient>
  </defs>
  <!-- Shield shadow -->
  <path d="M64,6 L108,24 V68 C108,90 90,108 64,118 C38,108 20,90 20,68 V24 Z" fill="#AEB6C4" opacity="0.3" transform="translate(3,3)"/>
  <!-- Shield right edge -->
  <path d="M64,6 L108,24 V68 C108,90 90,108 64,118 L64,114 C86,106 102,90 102,68 V28 L64,12 Z" fill="#AEB6C4"/>
  <!-- Shield main face -->
  <path d="M64,6 L20,24 V68 C20,90 38,108 64,118 C90,108 108,90 108,68 V24 Z" fill="url(#at-face)"/>
  <!-- Left highlight -->
  <path d="M64,6 L20,24 V68 C20,76 22,82 26,88 L64,14 Z" fill="white" opacity="0.08"/>
  <!-- Skull cranium -->
  <circle cx="64" cy="48" r="20" fill="#DFE3E8"/>
  <circle cx="58" cy="42" r="7" fill="white" opacity="0.1"/>
  <!-- Left eye socket -->
  <ellipse cx="56" cy="48" rx="6" ry="6.5" fill="#AEB6C4"/>
  <ellipse cx="56" cy="48" rx="4" ry="4.5" fill="currentColor" opacity="0.8"/>
  <ellipse cx="56" cy="47" rx="1.5" ry="2" fill="currentColor"/>
  <!-- Right eye socket -->
  <ellipse cx="72" cy="48" rx="6" ry="6.5" fill="#AEB6C4"/>
  <ellipse cx="72" cy="48" rx="4" ry="4.5" fill="currentColor" opacity="0.8"/>
  <ellipse cx="72" cy="47" rx="1.5" ry="2" fill="currentColor"/>
  <!-- Nose -->
  <path d="M61,56 L67,56 L64,60 Z" fill="#B5BCC8"/>
  <!-- Jaw -->
  <path d="M46,56 Q46,70 52,72 L54,72 V68 L57,72 L60,72 L64,68 L68,72 L71,72 L74,68 L74,72 L76,72 Q82,70 82,56" fill="#DFE3E8" opacity="0.82"/>
  <line x1="52" y1="68" x2="76" y2="68" stroke="#B5BCC8" stroke-width="1" opacity="0.5"/>
  <!-- Crossbones -->
  <line x1="30" y1="90" x2="98" y2="90" stroke="#DFE3E8" stroke-width="5" stroke-linecap="round" opacity="0.55"/>
  <circle cx="27" cy="90" r="4.5" fill="#DFE3E8" opacity="0.45"/>
  <circle cx="101" cy="90" r="4.5" fill="#DFE3E8" opacity="0.45"/>
  <line x1="30" y1="100" x2="98" y2="100" stroke="#DFE3E8" stroke-width="5" stroke-linecap="round" opacity="0.4"/>
  <circle cx="27" cy="100" r="4.5" fill="#DFE3E8" opacity="0.35"/>
  <circle cx="101" cy="100" r="4.5" fill="#DFE3E8" opacity="0.35"/>
</svg>
