<svg width="128" height="128" viewBox="0 0 128 128" fill="none" xmlns="http://www.w3.org/2000/svg">
  <defs>
    <linearGradient id="c2-body" x1="0" y1="0" x2="0" y2="1">
      <stop offset="0%" stop-color="#EDF0F4"/>
      <stop offset="100%" stop-color="#CBD1DA"/>
    </linearGradient>
  </defs>
  <!-- Cloud shadow -->
  <path d="M96,86 C110,86 120,74 120,62 C120,50 112,40 104,40 C103,40 102,40 101,40.3 C96,28 86,18 72,18 C56,18 44,28 42,40 C34,42 28,50 28,60 C28,72 36,86 48,86 Z" fill="#B5BCC8" opacity="0.25" transform="translate(3,4)"/>
  <!-- Main cloud -->
  <path d="M94,82 C108,82 118,72 118,60 C118,48 110,38 102,38 C101,38 100,38 99,38.3 C94,26 84,16 70,16 C54,16 42,26 40,38 C32,40 26,48 26,58 C26,70 34,82 46,82 Z" fill="url(#c2-body)"/>
  <!-- Top highlight -->
  <path d="M70,16 C58,16 48,20 44,28 Q54,18 70,20 Q82,18 88,26 L99,38.3 C100,38 101,38 102,38 C106,38 108,40 110,42 Q106,36 100,38" fill="white" opacity="0.1"/>
  <!-- Bottom shadow -->
  <path d="M46,76 L94,76 C100,76 106,78 110,82 L94,82 L46,82 C38,82 30,78 28,70 L30,74 C32,76 38,76 46,76Z" fill="#AEB6C4" opacity="0.2"/>
  <!-- Upload arrow -->
  <path d="M54,56 L54,72" stroke="currentColor" stroke-width="3.5" stroke-linecap="round"/>
  <path d="M46,64 L54,56 L62,64" stroke="currentColor" stroke-width="3.5" stroke-linecap="round" stroke-linejoin="round" fill="none"/>
  <!-- Download arrow -->
  <path d="M90,72 L90,56" stroke="currentColor" stroke-width="3.5" stroke-linecap="round"/>
  <path d="M82,64 L90,72 L98,64" stroke="currentColor" stroke-width="3.5" stroke-linecap="round" stroke-linejoin="round" fill="none"/>
  <!-- Accent circles at arrow tips -->
  <circle cx="54" cy="52" r="4" fill="currentColor" opacity="0.2"/>
  <circle cx="90" cy="76" r="4" fill="currentColor" opacity="0.2"/>
</svg>
