<svg width="128" height="128" viewBox="0 0 128 128" fill="none" xmlns="http://www.w3.org/2000/svg">
  <defs>
    <linearGradient id="db-body" x1="0" y1="0" x2="1" y2="0">
      <stop offset="0%" stop-color="#CBD1DA"/>
      <stop offset="50%" stop-color="#B5BCC8"/>
      <stop offset="100%" stop-color="#AEB6C4"/>
    </linearGradient>
  </defs>
  <!-- Bottom cylinder -->
  <ellipse cx="64" cy="112" rx="42" ry="14" fill="#AEB6C4"/>
  <rect x="22" y="86" width="84" height="26" fill="url(#db-body)"/>
  <ellipse cx="64" cy="86" rx="42" ry="14" fill="#E2E6EC"/>
  <ellipse cx="64" cy="86" rx="42" ry="14" fill="none" stroke="currentColor" stroke-width="1.5" opacity="0.3"/>
  <!-- Middle cylinder -->
  <ellipse cx="64" cy="82" rx="42" ry="14" fill="#AEB6C4"/>
  <rect x="22" y="56" width="84" height="26" fill="url(#db-body)"/>
  <ellipse cx="64" cy="56" rx="42" ry="14" fill="#E2E6EC"/>
  <ellipse cx="64" cy="56" rx="42" ry="14" fill="none" stroke="currentColor" stroke-width="1.5" opacity="0.45"/>
  <!-- Top cylinder -->
  <ellipse cx="64" cy="52" rx="42" ry="14" fill="#AEB6C4"/>
  <rect x="22" y="26" width="84" height="26" fill="url(#db-body)"/>
  <ellipse cx="64" cy="26" rx="42" ry="14" fill="#E2E6EC"/>
  <ellipse cx="64" cy="26" rx="42" ry="14" fill="none" stroke="currentColor" stroke-width="2" opacity="0.6"/>
  <!-- Top highlight -->
  <ellipse cx="54" cy="23" rx="18" ry="6" fill="white" opacity="0.12"/>
  <!-- LED indicators on body -->
  <circle cx="28" cy="38" r="3.5" fill="currentColor" opacity="0.85"/>
  <circle cx="28" cy="38" r="1.8" fill="currentColor"/>
  <circle cx="28" cy="68" r="3.5" fill="currentColor" opacity="0.65"/>
  <circle cx="28" cy="68" r="1.8" fill="currentColor" opacity="0.8"/>
  <circle cx="28" cy="98" r="3.5" fill="currentColor" opacity="0.45"/>
  <circle cx="28" cy="98" r="1.8" fill="currentColor" opacity="0.6"/>
  <!-- Data lines -->
  <line x1="35" y1="36" x2="54" y2="36" stroke="#9AA2B0" stroke-width="1.2" stroke-linecap="round" opacity="0.45"/>
  <line x1="35" y1="40" x2="48" y2="40" stroke="#9AA2B0" stroke-width="1" stroke-linecap="round" opacity="0.35"/>
  <line x1="35" y1="66" x2="50" y2="66" stroke="#9AA2B0" stroke-width="1.2" stroke-linecap="round" opacity="0.4"/>
  <line x1="35" y1="70" x2="44" y2="70" stroke="#9AA2B0" stroke-width="1" stroke-linecap="round" opacity="0.3"/>
</svg>
