<svg width="128" height="128" viewBox="0 0 56 56" fill="none" xmlns="http://www.w3.org/2000/svg" style="filter: drop-shadow(0 2px 4px rgba(0,0,0,0.45))">
  <!-- Cast shadow -->
  <ellipse cx="29" cy="48" rx="14" ry="3" fill="black" opacity="0.15" />
  <!-- Cylinder body -->
  <path d="M12 14 V40 C12 44 18 47 28 47 C38 47 44 44 44 40 V14" fill="#9d5cff" />
  <!-- Right edge shadow -->
  <path d="M38 14 Q44 14 44 14 V40 C44 44 38 47 28 47 C34 47 44 44 44 40 V14 Q44 16 40 17" fill="black" opacity="0.1" />
  <!-- Left edge highlight -->
  <path d="M12 14 V40 C12 42 14 44 18 45 V13 Q14 14 12 14Z" fill="white" opacity="0.1" />
  <!-- Top ellipse -->
  <ellipse cx="28" cy="14" rx="16" ry="6" fill="#9d5cff" />
  <!-- Top ellipse highlight -->
  <ellipse cx="26" cy="12.5" rx="10" ry="3" fill="white" opacity="0.2" />
  <ellipse cx="24" cy="11.5" rx="5" ry="1.5" fill="white" opacity="0.12" />
  <!-- Disk layer lines -->
  <path d="M12 22 C12 26 18 28 28 28 C38 28 44 26 44 22" fill="none" stroke="white" stroke-width="0.8" opacity="0.25" />
  <ellipse cx="28" cy="22" rx="16" ry="5" fill="white" opacity="0.06" />
  <path d="M12 31 C12 35 18 37 28 37 C38 37 44 35 44 31" fill="none" stroke="white" stroke-width="0.8" opacity="0.2" />
  <ellipse cx="28" cy="31" rx="16" ry="5" fill="white" opacity="0.04" />
  <!-- Bottom ellipse rim -->
  <path d="M12 40 C12 44 18 47 28 47 C38 47 44 44 44 40" fill="none" stroke="white" stroke-width="0.5" opacity="0.1" />
  <!-- Data indicators on side -->
  <circle cx="18" cy="24" r="1" fill="white" opacity="0.2" />
  <circle cx="18" cy="33" r="1" fill="white" opacity="0.15" />
  <rect x="21" y="23.5" width="6" height="1" rx="0.5" fill="white" opacity="0.12" />
  <rect x="21" y="32.5" width="6" height="1" rx="0.5" fill="white" opacity="0.1" />
</svg>
