<svg width="96" height="96" viewBox="0 0 56 56" fill="none" xmlns="http://www.w3.org/2000/svg" style="filter: drop-shadow(0 2px 4px rgba(0,0,0,0.45))">
  <!-- Monitor cast shadow -->
  <rect x="10" y="10" width="38" height="26" rx="3" fill="black" opacity="0.15" />
  <!-- Monitor body -->
  <rect x="8" y="8" width="38" height="26" rx="3" fill="#00d4ff" />
  <!-- Top highlight -->
  <path d="M11 8 H43 Q46 8 46 11 V14 H8 V11 Q8 8 11 8Z" fill="white" opacity="0.2" />
  <!-- Right edge depth -->
  <path d="M42 8 H43 Q46 8 46 11 V31 Q46 34 43 34 H42 V8Z" fill="black" opacity="0.12" />
  <!-- Screen bezel -->
  <rect x="11" y="11" width="32" height="20" rx="1.5" fill="black" opacity="0.4" />
  <!-- Screen -->
  <rect x="11.5" y="11.5" width="31" height="19" rx="1" fill="#0a1628" />
  <!-- Screen content - window bars -->
  <rect x="13" y="13" width="27" height="3" rx="0.5" fill="#00d4ff" opacity="0.3" />
  <circle cx="15" cy="14.5" r="0.8" fill="#ff5f56" opacity="0.6" />
  <circle cx="17.5" cy="14.5" r="0.8" fill="#ffbd2e" opacity="0.6" />
  <circle cx="20" cy="14.5" r="0.8" fill="#27c93f" opacity="0.6" />
  <!-- Screen text lines -->
  <rect x="13" y="18" width="18" height="1.2" rx="0.5" fill="#00d4ff" opacity="0.25" />
  <rect x="13" y="20.5" width="24" height="1.2" rx="0.5" fill="#00d4ff" opacity="0.18" />
  <rect x="13" y="23" width="14" height="1.2" rx="0.5" fill="#00d4ff" opacity="0.15" />
  <rect x="13" y="25.5" width="20" height="1.2" rx="0.5" fill="#00d4ff" opacity="0.12" />
  <!-- Screen reflection -->
  <path d="M11.5 11.5 L20 11.5 L11.5 20 Z" fill="white" opacity="0.06" />
  <!-- Chin with logo -->
  <circle cx="27" cy="32" r="1.2" fill="white" opacity="0.3" />
  <!-- Stand neck -->
  <rect x="24" y="34" width="6" height="4" fill="#00d4ff" />
  <rect x="24" y="34" width="2" height="4" fill="white" opacity="0.1" />
  <rect x="28" y="34" width="2" height="4" fill="black" opacity="0.1" />
  <!-- Base -->
  <rect x="16" y="38" width="22" height="4" rx="1.5" fill="#00d4ff" />
  <rect x="16" y="38" width="22" height="1.5" rx="1.5" fill="white" opacity="0.15" />
  <rect x="16" y="40.5" width="22" height="1.5" rx="0 0 1.5 1.5" fill="black" opacity="0.1" />
  <!-- Base highlight dot -->
  <circle cx="27" cy="40" r="0.8" fill="white" opacity="0.2" />
</svg>
