<svg width="128" height="128" viewBox="0 0 128 128" fill="none" xmlns="http://www.w3.org/2000/svg">
  <defs>
    <linearGradient id="dt-top" x1="0" y1="0" x2="0" y2="1">
      <stop offset="0%" stop-color="#F0F2F5"/>
      <stop offset="100%" stop-color="#E2E6EC"/>
    </linearGradient>
  </defs>
  <!-- Monitor left face -->
  <path d="M56,42 L38,33 L38,69 L56,78 Z" fill="#C5CBD4"/>
  <!-- Monitor right face -->
  <path d="M56,42 L96,22 L96,58 L56,78 Z" fill="#AEB6C4"/>
  <!-- Monitor top face -->
  <path d="M56,42 L96,22 L78,13 L38,33 Z" fill="url(#dt-top)"/>
  <!-- Screen on right face -->
  <path d="M60,47 L92,31 L92,54 L60,70 Z" fill="#1A2332"/>
  <!-- Screen content -->
  <line x1="63" y1="46" x2="80" y2="37.5" stroke="currentColor" stroke-width="1.5" opacity="0.5" stroke-linecap="round"/>
  <line x1="63" y1="50" x2="88" y2="37.5" stroke="currentColor" stroke-width="1.2" opacity="0.3" stroke-linecap="round"/>
  <line x1="63" y1="54" x2="78" y2="46.5" stroke="currentColor" stroke-width="1.2" opacity="0.25" stroke-linecap="round"/>
  <line x1="63" y1="58" x2="84" y2="47.5" stroke="currentColor" stroke-width="1" opacity="0.2" stroke-linecap="round"/>
  <line x1="63" y1="62" x2="74" y2="56.5" stroke="currentColor" stroke-width="1.2" opacity="0.35" stroke-linecap="round"/>
  <!-- Screen reflection -->
  <path d="M60,47 L68,43 L60,51 Z" fill="white" opacity="0.04"/>
  <!-- Power circle left face -->
  <circle cx="42" cy="63" r="3.5" fill="currentColor" opacity="0.85"/>
  <circle cx="42" cy="63" r="1.8" fill="currentColor"/>
  <!-- Stand neck -->
  <path d="M54,78 L60,75 L60,88 L54,91 Z" fill="#C5CBD4"/>
  <path d="M60,75 L66,72 L66,85 L60,88 Z" fill="#AEB6C4"/>
  <!-- Base left face -->
  <path d="M54,98 L28,85 L28,91 L54,104 Z" fill="#C5CBD4"/>
  <!-- Base right face -->
  <path d="M54,98 L92,79 L92,85 L54,104 Z" fill="#AEB6C4"/>
  <!-- Base top face -->
  <path d="M54,98 L92,79 L68,68 L28,85 Z" fill="url(#dt-top)"/>
</svg>
