<svg width="128" height="128" viewBox="0 0 128 128" fill="none" xmlns="http://www.w3.org/2000/svg">
  <defs>
    <linearGradient id="fw-face" x1="0" y1="0" x2="0" y2="1">
      <stop offset="0%" stop-color="#E8ECF1"/>
      <stop offset="100%" stop-color="#CBD1DA"/>
    </linearGradient>
  </defs>
  <!-- Shield shadow/depth -->
  <path d="M64,6 L108,24 L108,72 C108,94 90,112 64,122 C38,112 20,94 20,72 V24 Z" fill="#AEB6C4" opacity="0.4" transform="translate(3,3)"/>
  <!-- Shield right face -->
  <path d="M64,6 L108,24 V72 C108,94 90,112 64,122 L64,118 C86,110 102,94 102,72 V28 L64,12 Z" fill="#AEB6C4"/>
  <!-- Shield main face -->
  <path d="M64,6 L20,24 V72 C20,94 38,112 64,122 C90,112 108,94 108,72 V24 Z" fill="url(#fw-face)"/>
  <!-- Left highlight -->
  <path d="M64,6 L20,24 V72 C20,80 22,86 26,92 L64,14 Z" fill="white" opacity="0.1"/>
  <!-- Inner shield border -->
  <path d="M64,18 L30,32 V72 C30,90 44,104 64,114 C84,104 98,90 98,72 V32 Z" fill="none" stroke="#C0C6D0" stroke-width="1.8"/>
  <!-- Brick pattern -->
  <rect x="36" y="34" width="22" height="10" rx="2" fill="#B5BCC8" opacity="0.45"/>
  <rect x="62" y="34" width="22" height="10" rx="2" fill="#B5BCC8" opacity="0.45"/>
  <rect x="28" y="48" width="20" height="10" rx="2" fill="#B5BCC8" opacity="0.38"/>
  <rect x="52" y="48" width="22" height="10" rx="2" fill="#B5BCC8" opacity="0.38"/>
  <rect x="78" y="48" width="14" height="10" rx="2" fill="#B5BCC8" opacity="0.38"/>
  <rect x="36" y="62" width="22" height="10" rx="2" fill="#B5BCC8" opacity="0.3"/>
  <rect x="62" y="62" width="18" height="10" rx="2" fill="#B5BCC8" opacity="0.3"/>
  <!-- Blue accent circle with lock -->
  <circle cx="64" cy="88" r="14" fill="currentColor" opacity="0.9"/>
  <circle cx="64" cy="88" r="10.5" fill="currentColor"/>
  <!-- Lock shackle -->
  <path d="M58,86 V80 Q58,74 64,74 Q70,74 70,80 V86" stroke="white" stroke-width="3" fill="none" stroke-linecap="round"/>
  <!-- Lock body -->
  <rect x="56" y="86" width="16" height="12" rx="3" fill="white" opacity="0.9"/>
  <!-- Keyhole -->
  <circle cx="64" cy="92" r="2.2" fill="currentColor"/>
  <rect x="63" y="93" width="2" height="3.5" rx="0.7" fill="currentColor"/>
</svg>
