<svg width="128" height="128" viewBox="0 0 128 128" fill="none" xmlns="http://www.w3.org/2000/svg">
  <defs>
    <linearGradient id="gn-top" x1="0" y1="0" x2="0" y2="1">
      <stop offset="0%" stop-color="#F0F2F5"/>
      <stop offset="100%" stop-color="#E2E6EC"/>
    </linearGradient>
  </defs>
  <!-- Left face -->
  <path d="M56,44 L28,30 L28,92 L56,106 Z" fill="#C5CBD4"/>
  <!-- Right face -->
  <path d="M56,44 L96,24 L96,86 L56,106 Z" fill="#AEB6C4"/>
  <!-- Top face -->
  <path d="M56,44 L96,24 L68,10 L28,30 Z" fill="url(#gn-top)"/>
  <!-- Screen on right face -->
  <path d="M60,50 L92,34 L92,62 L60,78 Z" fill="#2A3444" opacity="0.45"/>
  <path d="M61,51 L91,35 L91,61 L61,77 Z" fill="#1A2332" opacity="0.55"/>
  <!-- Screen content -->
  <line x1="64" y1="50" x2="82" y2="41" stroke="currentColor" stroke-width="1.5" opacity="0.45" stroke-linecap="round"/>
  <line x1="64" y1="55" x2="86" y2="44" stroke="currentColor" stroke-width="1.2" opacity="0.3" stroke-linecap="round"/>
  <line x1="64" y1="60" x2="78" y2="53" stroke="currentColor" stroke-width="1.2" opacity="0.22" stroke-linecap="round"/>
  <!-- Blue accent circle -->
  <circle cx="76" cy="76" r="5.5" fill="currentColor" opacity="0.85"/>
  <circle cx="76" cy="76" r="3" fill="currentColor"/>
  <!-- Status LEDs left face -->
  <circle cx="34" cy="42" r="3" fill="currentColor" opacity="0.7"/>
  <circle cx="34" cy="42" r="1.5" fill="currentColor"/>
  <circle cx="34" cy="52" r="2.5" fill="currentColor" opacity="0.35"/>
  <!-- Ventilation left face -->
  <line x1="33" y1="72" x2="45" y2="66" stroke="#B8C0CC" stroke-width="1" opacity="0.45"/>
  <line x1="33" y1="76" x2="45" y2="70" stroke="#B8C0CC" stroke-width="1" opacity="0.45"/>
  <line x1="33" y1="80" x2="45" y2="74" stroke="#B8C0CC" stroke-width="1" opacity="0.45"/>
  <line x1="33" y1="84" x2="45" y2="78" stroke="#B8C0CC" stroke-width="1" opacity="0.45"/>
  <line x1="33" y1="88" x2="45" y2="82" stroke="#B8C0CC" stroke-width="1" opacity="0.45"/>
</svg>
