<svg width="128" height="128" viewBox="0 0 56 56" fill="none" xmlns="http://www.w3.org/2000/svg" style="filter: drop-shadow(0 2px 4px rgba(0,0,0,0.45))">
  <!-- Screen shadow -->
  <rect x="12" y="8" width="34" height="26" rx="2.5" fill="black" opacity="0.15" />
  <!-- Screen body -->
  <rect x="10" y="6" width="34" height="26" rx="2.5" fill="#8892a6" />
  <!-- Screen top highlight -->
  <path d="M12.5 6 H41.5 Q44 6 44 8.5 V12 H10 V8.5 Q10 6 12.5 6Z" fill="white" opacity="0.18" />
  <!-- Screen right edge -->
  <path d="M40 6 H41.5 Q44 6 44 8.5 V29.5 Q44 32 41.5 32 H40 V6Z" fill="black" opacity="0.1" />
  <!-- Display bezel -->
  <rect x="13" y="9" width="28" height="20" rx="1.5" fill="black" opacity="0.35" />
  <!-- Display screen -->
  <rect x="13.5" y="9.5" width="27" height="19" rx="1" fill="#0a1628" />
  <!-- Screen content -->
  <rect x="15" y="11" width="10" height="1.2" rx="0.5" fill="#8892a6" opacity="0.3" />
  <rect x="15" y="13.5" width="20" height="1.2" rx="0.5" fill="white" opacity="0.2" />
  <rect x="15" y="16" width="16" height="1.2" rx="0.5" fill="white" opacity="0.15" />
  <rect x="15" y="18.5" width="22" height="1.2" rx="0.5" fill="white" opacity="0.12" />
  <rect x="15" y="21" width="12" height="1.2" rx="0.5" fill="#8892a6" opacity="0.2" />
  <rect x="15" y="23.5" width="18" height="1.2" rx="0.5" fill="white" opacity="0.1" />
  <!-- Screen reflection -->
  <path d="M13.5 9.5 L22 9.5 L13.5 18 Z" fill="white" opacity="0.04" />
  <!-- Webcam dot -->
  <circle cx="27" cy="7.5" r="1" fill="black" opacity="0.3" />
  <circle cx="27" cy="7.5" r="0.5" fill="white" opacity="0.15" />
  <!-- Hinge -->
  <rect x="12" y="32" width="30" height="2.5" rx="1" fill="#8892a6" />
  <rect x="12" y="32" width="30" height="1" rx="1" fill="white" opacity="0.15" />
  <!-- Keyboard base -->
  <path d="M6 34.5 L48 34.5 L46 46.5 Q46 48 44 48 L10 48 Q8 48 8 46.5 L6 34.5Z" fill="#8892a6" />
  <!-- Keyboard base highlight -->
  <path d="M6 34.5 L48 34.5 L47.5 37 L6.5 37 Z" fill="white" opacity="0.15" />
  <!-- Keyboard base right shadow -->
  <path d="M48 34.5 L46 46.5 Q46 48 44 48 L42 48 L44 36 L48 34.5Z" fill="black" opacity="0.08" />
  <!-- Keyboard keys (simplified grid) -->
  <rect x="12" y="37.5" width="30" height="1.5" rx="0.5" fill="black" opacity="0.12" />
  <rect x="12" y="40" width="30" height="1.5" rx="0.5" fill="black" opacity="0.12" />
  <rect x="12" y="42.5" width="30" height="1.5" rx="0.5" fill="black" opacity="0.12" />
  <!-- Trackpad -->
  <rect x="22" y="45" width="10" height="2" rx="0.8" fill="black" opacity="0.1" />
</svg>
