<svg width="128" height="128" viewBox="0 0 128 128" fill="none" xmlns="http://www.w3.org/2000/svg">
  <defs>
    <linearGradient id="lp-top" x1="0" y1="0" x2="0" y2="1">
      <stop offset="0%" stop-color="#F0F2F5"/>
      <stop offset="100%" stop-color="#E2E6EC"/>
    </linearGradient>
  </defs>
  <!-- Screen panel right -->
  <path d="M58,10 L100,4 L100,58 L58,72 Z" fill="#C5CBD4"/>
  <!-- Screen panel left -->
  <path d="M58,10 L26,28 L26,82 L58,72 Z" fill="#CBD1DA"/>
  <!-- Screen bezel right -->
  <path d="M60,16 L96,10 L96,54 L60,66 Z" fill="#1A2332"/>
  <!-- Screen bezel left -->
  <path d="M58,16 L30,32 L30,76 L58,66 Z" fill="#1E2836"/>
  <!-- Screen content right -->
  <line x1="64" y1="20" x2="88" y2="14" stroke="currentColor" stroke-width="1.5" opacity="0.4" stroke-linecap="round"/>
  <line x1="64" y1="26" x2="92" y2="18" stroke="currentColor" stroke-width="1.2" opacity="0.3" stroke-linecap="round"/>
  <line x1="64" y1="32" x2="82" y2="26" stroke="currentColor" stroke-width="1.2" opacity="0.25" stroke-linecap="round"/>
  <line x1="64" y1="38" x2="86" y2="30.5" stroke="currentColor" stroke-width="1" opacity="0.2" stroke-linecap="round"/>
  <!-- Screen content left -->
  <line x1="34" y1="40" x2="54" y2="30" stroke="currentColor" stroke-width="1.2" opacity="0.3" stroke-linecap="round"/>
  <line x1="34" y1="46" x2="48" y2="39" stroke="currentColor" stroke-width="1" opacity="0.2" stroke-linecap="round"/>
  <!-- Webcam dot -->
  <circle cx="60" cy="12" r="2" fill="currentColor" opacity="0.5"/>
  <!-- Hinge bar -->
  <path d="M26,82 L58,72 L100,58 L106,62 L62,76 L26,88 Z" fill="#B5BCC8"/>
  <!-- Keyboard base top face -->
  <path d="M58,90 L106,62 L62,76 L26,88 Z" fill="url(#lp-top)"/>
  <!-- Keyboard base right face -->
  <path d="M58,90 L106,62 L106,68 L58,96 Z" fill="#AEB6C4"/>
  <!-- Keyboard base left face -->
  <path d="M58,90 L26,88 L26,94 L58,96 Z" fill="#C5CBD4"/>
  <!-- Keyboard key rows -->
  <line x1="34" y1="90" x2="54" y2="82" stroke="#C0C6D0" stroke-width="2" opacity="0.5" stroke-linecap="round"/>
  <line x1="38" y1="88" x2="64" y2="76" stroke="#C0C6D0" stroke-width="2" opacity="0.5" stroke-linecap="round"/>
  <line x1="42" y1="86" x2="74" y2="70" stroke="#C0C6D0" stroke-width="2" opacity="0.5" stroke-linecap="round"/>
  <!-- Trackpad -->
  <path d="M50,88 L58,84 L64,81 L56,85 Z" fill="#C0C6D0" opacity="0.4"/>
</svg>
