<svg width="128" height="128" viewBox="0 0 128 128" fill="none" xmlns="http://www.w3.org/2000/svg">
  <defs>
    <linearGradient id="lx-top" x1="0" y1="0" x2="0" y2="1">
      <stop offset="0%" stop-color="#F0F2F5"/>
      <stop offset="100%" stop-color="#E2E6EC"/>
    </linearGradient>
  </defs>
  <!-- Monitor left face -->
  <path d="M56,38 L34,27 L34,68 L56,79 Z" fill="#C5CBD4"/>
  <!-- Monitor right face -->
  <path d="M56,38 L98,17 L98,58 L56,79 Z" fill="#AEB6C4"/>
  <!-- Monitor top face -->
  <path d="M56,38 L98,17 L76,6 L34,27 Z" fill="url(#lx-top)"/>
  <!-- Terminal screen right face -->
  <path d="M60,43 L94,26 L94,54 L60,71 Z" fill="#1A2332"/>
  <!-- Title bar -->
  <path d="M60,43 L94,26 L94,30 L60,47 Z" fill="#2A3444"/>
  <!-- Title bar dots -->
  <circle cx="63" cy="44.5" r="1.5" fill="#ff5f56" opacity="0.7"/>
  <circle cx="67.5" cy="42.3" r="1.5" fill="#ffbd2e" opacity="0.7"/>
  <circle cx="72" cy="40" r="1.5" fill="#27c93f" opacity="0.7"/>
  <!-- Prompt 1 -->
  <line x1="63" y1="50" x2="68" y2="47.5" stroke="currentColor" stroke-width="1.8" stroke-linecap="round" opacity="0.8"/>
  <line x1="70" y1="46.5" x2="84" y2="39.5" stroke="currentColor" stroke-width="1.3" stroke-linecap="round" opacity="0.45"/>
  <!-- Output lines -->
  <line x1="63" y1="54" x2="88" y2="41.5" stroke="#DFE3E8" stroke-width="1" stroke-linecap="round" opacity="0.28"/>
  <line x1="63" y1="58" x2="80" y2="49.5" stroke="#DFE3E8" stroke-width="1" stroke-linecap="round" opacity="0.22"/>
  <line x1="63" y1="62" x2="86" y2="50.5" stroke="#DFE3E8" stroke-width="1" stroke-linecap="round" opacity="0.18"/>
  <!-- Prompt 2 -->
  <line x1="63" y1="66" x2="68" y2="63.5" stroke="currentColor" stroke-width="1.8" stroke-linecap="round" opacity="0.8"/>
  <!-- Cursor -->
  <rect x="70" y="62" width="4" height="2.5" rx="0.5" fill="currentColor" opacity="0.5"/>
  <!-- Power LED left face -->
  <circle cx="39" cy="62" r="3.5" fill="currentColor" opacity="0.85"/>
  <circle cx="39" cy="62" r="1.8" fill="currentColor"/>
  <!-- Tux circle left face -->
  <circle cx="39" cy="34" r="4.5" fill="currentColor" opacity="0.15"/>
  <circle cx="39" cy="34" r="2.5" fill="currentColor" opacity="0.35"/>
  <!-- Stand -->
  <path d="M54,79 L58,77 L58,90 L54,92 Z" fill="#C5CBD4"/>
  <path d="M58,77 L64,74 L64,87 L58,90 Z" fill="#AEB6C4"/>
  <!-- Base -->
  <path d="M54,98 L92,79 L72,70 L28,89 Z" fill="url(#lx-top)"/>
  <path d="M54,98 L28,89 L28,94 L54,103 Z" fill="#C5CBD4"/>
  <path d="M54,98 L92,79 L92,84 L54,103 Z" fill="#AEB6C4"/>
</svg>
