<svg width="96" height="96" viewBox="0 0 56 56" fill="none" xmlns="http://www.w3.org/2000/svg" style="filter: drop-shadow(0 2px 4px rgba(0,0,0,0.45))">
  <!-- Cast shadow -->
  <rect x="9" y="9" width="40" height="40" rx="4" fill="black" opacity="0.18" />
  <!-- Window frame -->
  <rect x="7" y="7" width="40" height="40" rx="4" fill="#1e2433" />
  <!-- Right edge depth -->
  <path d="M43 7 H43 Q47 7 47 11 V43 Q47 47 43 47 H43 V7Z" fill="black" opacity="0.15" />
  <!-- Bottom edge depth -->
  <rect x="7" y="43" width="40" height="4" rx="0 0 4 4" fill="black" opacity="0.08" />
  <!-- Title bar -->
  <rect x="7" y="7" width="40" height="10" rx="4 4 0 0" fill="#ffab40" />
  <rect x="7" y="13" width="40" height="4" fill="#ffab40" />
  <!-- Title bar highlight -->
  <rect x="7" y="7" width="40" height="4" rx="4 4 0 0" fill="white" opacity="0.2" />
  <!-- Traffic light buttons -->
  <circle cx="13" cy="12" r="2.2" fill="#ff5f56" />
  <circle cx="12.5" cy="11.5" r="0.8" fill="white" opacity="0.3" />
  <circle cx="19" cy="12" r="2.2" fill="#ffbd2e" />
  <circle cx="18.5" cy="11.5" r="0.8" fill="white" opacity="0.3" />
  <circle cx="25" cy="12" r="2.2" fill="#27c93f" />
  <circle cx="24.5" cy="11.5" r="0.8" fill="white" opacity="0.3" />
  <!-- Title text placeholder -->
  <rect x="31" y="11" width="12" height="2" rx="1" fill="white" opacity="0.2" />
  <!-- Terminal screen -->
  <rect x="9" y="17" width="36" height="28" fill="#0d1117" />
  <!-- Prompt line 1 -->
  <rect x="12" y="20" width="4" height="2" rx="0.5" fill="#ffab40" opacity="0.9" />
  <rect x="18" y="20" width="14" height="2" rx="0.5" fill="#3dd68c" opacity="0.7" />
  <!-- Output line 1 -->
  <rect x="12" y="25" width="20" height="1.5" rx="0.5" fill="white" opacity="0.35" />
  <!-- Output line 2 -->
  <rect x="12" y="28.5" width="16" height="1.5" rx="0.5" fill="white" opacity="0.25" />
  <!-- Output line 3 -->
  <rect x="12" y="32" width="24" height="1.5" rx="0.5" fill="white" opacity="0.2" />
  <!-- Prompt line 2 -->
  <rect x="12" y="36.5" width="4" height="2" rx="0.5" fill="#ffab40" opacity="0.9" />
  <!-- Cursor block -->
  <rect x="18" y="36.5" width="3" height="2" rx="0.5" fill="#ffab40" opacity="0.6" />
  <!-- Screen reflection -->
  <path d="M9 17 L18 17 L9 26 Z" fill="white" opacity="0.03" />
</svg>
