<svg width="128" height="128" viewBox="0 0 56 56" fill="none" xmlns="http://www.w3.org/2000/svg" style="filter: drop-shadow(0 2px 4px rgba(0,0,0,0.45))">
  <!-- Cast shadow -->
  <rect x="17" y="5" width="24" height="48" rx="5" fill="black" opacity="0.18" />
  <!-- Phone body -->
  <rect x="15" y="3" width="24" height="48" rx="5" fill="#3ddc84" />
  <!-- Top highlight -->
  <path d="M20 3 H34 Q39 3 39 8 V10 H15 V8 Q15 3 20 3Z" fill="white" opacity="0.2" />
  <!-- Right edge depth -->
  <path d="M35 3 H34 Q39 3 39 8 V46 Q39 51 34 51 H35 V3Z" fill="black" opacity="0.12" />
  <!-- Bottom edge -->
  <rect x="15" y="47" width="24" height="4" rx="0 0 5 5" fill="black" opacity="0.08" />
  <!-- Screen bezel -->
  <rect x="17" y="9" width="20" height="36" rx="2" fill="black" opacity="0.4" />
  <!-- Screen -->
  <rect x="17.5" y="9.5" width="19" height="35" rx="1.5" fill="#0a1628" />
  <!-- Notch -->
  <rect x="23" y="9.5" width="8" height="3" rx="1.5" fill="#3ddc84" opacity="0.8" />
  <circle cx="27" cy="11" r="1" fill="black" opacity="0.4" />
  <circle cx="27" cy="11" r="0.4" fill="white" opacity="0.15" />
  <!-- Status bar -->
  <rect x="19" y="10.5" width="3" height="1" rx="0.5" fill="white" opacity="0.25" />
  <rect x="32" y="10.5" width="3" height="1" rx="0.5" fill="white" opacity="0.25" />
  <!-- App grid - row 1 -->
  <rect x="19.5" y="16" width="4" height="4" rx="1" fill="#4d7cfe" opacity="0.6" />
  <rect x="25" y="16" width="4" height="4" rx="1" fill="#3dd68c" opacity="0.6" />
  <rect x="30.5" y="16" width="4" height="4" rx="1" fill="#ff5c5c" opacity="0.6" />
  <!-- App grid - row 2 -->
  <rect x="19.5" y="22" width="4" height="4" rx="1" fill="#ffab40" opacity="0.6" />
  <rect x="25" y="22" width="4" height="4" rx="1" fill="#9d5cff" opacity="0.6" />
  <rect x="30.5" y="22" width="4" height="4" rx="1" fill="#3dd6d6" opacity="0.6" />
  <!-- App grid - row 3 -->
  <rect x="19.5" y="28" width="4" height="4" rx="1" fill="#ff5c9d" opacity="0.5" />
  <rect x="25" y="28" width="4" height="4" rx="1" fill="#6b96ff" opacity="0.5" />
  <rect x="30.5" y="28" width="4" height="4" rx="1" fill="#ffd93d" opacity="0.5" />
  <!-- Widget area -->
  <rect x="19.5" y="34" width="15" height="5" rx="1.5" fill="white" opacity="0.08" />
  <rect x="21" y="35.5" width="8" height="1" rx="0.5" fill="white" opacity="0.2" />
  <rect x="21" y="37.5" width="5" height="1" rx="0.5" fill="white" opacity="0.12" />
  <!-- Home indicator -->
  <rect x="23" y="42" width="8" height="2" rx="1" fill="white" opacity="0.25" />
  <!-- Side buttons -->
  <rect x="15" y="16" width="0.8" height="5" rx="0.4" fill="white" opacity="0.12" />
  <rect x="15" y="23" width="0.8" height="3" rx="0.4" fill="white" opacity="0.12" />
  <rect x="15" y="27" width="0.8" height="3" rx="0.4" fill="white" opacity="0.12" />
</svg>
