<svg width="128" height="128" viewBox="0 0 128 128" fill="none" xmlns="http://www.w3.org/2000/svg">
  <defs>
    <linearGradient id="mb-top" x1="0" y1="0" x2="0" y2="1">
      <stop offset="0%" stop-color="#F0F2F5"/>
      <stop offset="100%" stop-color="#E2E6EC"/>
    </linearGradient>
  </defs>
  <!-- Phone left face -->
  <path d="M62,14 L40,3 L40,108 L62,119 Z" fill="#C5CBD4"/>
  <!-- Phone right face -->
  <path d="M62,14 L88,1 L88,106 L62,119 Z" fill="#AEB6C4"/>
  <!-- Phone top face -->
  <path d="M62,14 L88,1 L66,-10 L40,3 Z" fill="url(#mb-top)"/>
  <!-- Screen right face -->
  <path d="M65,24 L85,14 L85,96 L65,106 Z" fill="#1A2332"/>
  <!-- Screen left face -->
  <path d="M62,25 L44,16 L44,102 L62,111 Z" fill="#1E2836"/>
  <!-- Notch -->
  <path d="M56,20 L62,17 L72,12 L66,15 Z" fill="#C5CBD4" opacity="0.5"/>
  <!-- Camera -->
  <circle cx="63" cy="17" r="2" fill="currentColor" opacity="0.5"/>
  <!-- Screen content right -->
  <line x1="68" y1="30" x2="82" y2="23" stroke="currentColor" stroke-width="1.5" opacity="0.4" stroke-linecap="round"/>
  <line x1="68" y1="36" x2="78" y2="31" stroke="currentColor" stroke-width="1.2" opacity="0.3" stroke-linecap="round"/>
  <!-- App grid right face -->
  <circle cx="70" cy="48" r="3" fill="currentColor" opacity="0.4"/>
  <circle cx="78" cy="44" r="3" fill="currentColor" opacity="0.3"/>
  <circle cx="70" cy="58" r="3" fill="currentColor" opacity="0.3"/>
  <circle cx="78" cy="54" r="3" fill="currentColor" opacity="0.25"/>
  <circle cx="70" cy="68" r="3" fill="#AEB6C4" opacity="0.3"/>
  <circle cx="78" cy="64" r="3" fill="#AEB6C4" opacity="0.25"/>
  <!-- App grid left face -->
  <circle cx="50" cy="36" r="3" fill="currentColor" opacity="0.3"/>
  <circle cx="50" cy="46" r="3" fill="currentColor" opacity="0.25"/>
  <circle cx="50" cy="56" r="3" fill="#AEB6C4" opacity="0.2"/>
  <!-- Home indicator -->
  <line x1="68" y1="100" x2="80" y2="94" stroke="white" stroke-width="2" stroke-linecap="round" opacity="0.25"/>
  <!-- Side buttons -->
  <rect x="88" y="30" width="2" height="10" rx="1" fill="#9AA2B0" opacity="0.4"/>
  <rect x="88" y="46" width="2" height="6" rx="1" fill="#9AA2B0" opacity="0.35"/>
</svg>
