<svg width="128" height="128" viewBox="0 0 128 128" fill="none" xmlns="http://www.w3.org/2000/svg">
  <defs>
    <linearGradient id="rt-top" x1="0" y1="0" x2="0" y2="1">
      <stop offset="0%" stop-color="#F0F2F5"/>
      <stop offset="100%" stop-color="#E2E6EC"/>
    </linearGradient>
  </defs>
  <!-- Left antenna -->
  <line x1="38" y1="78" x2="38" y2="18" stroke="#C5CBD4" stroke-width="3" stroke-linecap="round"/>
  <circle cx="38" cy="14" r="6" fill="currentColor" opacity="0.85"/>
  <circle cx="38" cy="14" r="3" fill="currentColor"/>
  <!-- Right antenna -->
  <line x1="84" y1="56" x2="84" y2="12" stroke="#AEB6C4" stroke-width="3" stroke-linecap="round"/>
  <circle cx="84" cy="8" r="6" fill="currentColor" opacity="0.85"/>
  <circle cx="84" cy="8" r="3" fill="currentColor"/>
  <!-- Signal arcs left -->
  <path d="M30,10 Q25,4 28,0" stroke="currentColor" stroke-width="1.5" fill="none" opacity="0.35" stroke-linecap="round"/>
  <path d="M32,14 Q27,8 30,2" stroke="currentColor" stroke-width="1.2" fill="none" opacity="0.2" stroke-linecap="round"/>
  <!-- Signal arcs right -->
  <path d="M92,4 Q97,0 94,-4" stroke="currentColor" stroke-width="1.5" fill="none" opacity="0.35" stroke-linecap="round"/>
  <path d="M90,8 Q95,2 93,-2" stroke="currentColor" stroke-width="1.2" fill="none" opacity="0.2" stroke-linecap="round"/>
  <!-- Left face -->
  <path d="M52,88 L22,73 L22,89 L52,104 Z" fill="#C5CBD4"/>
  <!-- Right face -->
  <path d="M52,88 L102,63 L102,79 L52,104 Z" fill="#AEB6C4"/>
  <!-- Top face -->
  <path d="M52,88 L102,63 L72,48 L22,73 Z" fill="url(#rt-top)"/>
  <!-- Port row on right face -->
  <line x1="60" y1="96" x2="65" y2="93.5" stroke="#2A3444" stroke-width="4.5" stroke-linecap="round" opacity="0.35"/>
  <line x1="69" y1="91.5" x2="74" y2="89" stroke="#2A3444" stroke-width="4.5" stroke-linecap="round" opacity="0.35"/>
  <line x1="78" y1="87" x2="83" y2="84.5" stroke="#2A3444" stroke-width="4.5" stroke-linecap="round" opacity="0.35"/>
  <line x1="87" y1="82.5" x2="92" y2="80" stroke="#2A3444" stroke-width="4.5" stroke-linecap="round" opacity="0.35"/>
  <line x1="94" y1="78.5" x2="99" y2="76" stroke="#2A3444" stroke-width="4.5" stroke-linecap="round" opacity="0.35"/>
  <!-- Port LEDs on top face -->
  <circle cx="62" cy="84" r="2" fill="currentColor" opacity="0.8"/>
  <circle cx="71" cy="79.5" r="2" fill="currentColor" opacity="0.8"/>
  <circle cx="80" cy="75" r="2" fill="currentColor" opacity="0.6"/>
  <circle cx="89" cy="70.5" r="2" fill="currentColor" opacity="0.4"/>
  <circle cx="97" cy="66.5" r="2" fill="#9AA2B0" opacity="0.3"/>
  <!-- Power LED left face -->
  <circle cx="28" cy="78" r="3" fill="currentColor" opacity="0.85"/>
  <circle cx="28" cy="78" r="1.5" fill="currentColor"/>
  <!-- Brand line top face -->
  <line x1="30" y1="78" x2="44" y2="71" stroke="#CBD1DA" stroke-width="2.5" stroke-linecap="round"/>
</svg>
