<svg width="128" height="128" viewBox="0 0 56 56" fill="none" xmlns="http://www.w3.org/2000/svg" style="filter: drop-shadow(0 2px 4px rgba(0,0,0,0.45))">
  <!-- Cast shadow -->
  <rect x="6" y="22" width="46" height="18" rx="3" fill="black" opacity="0.18" />
  <!-- Main body -->
  <rect x="4" y="20" width="46" height="18" rx="3" fill="#4d7cfe" />
  <!-- Top face highlight -->
  <path d="M7 20 H47 Q50 20 50 23 V26 H4 V23 Q4 20 7 20Z" fill="white" opacity="0.18" />
  <!-- Right edge depth -->
  <path d="M46 20 H47 Q50 20 50 23 V35 Q50 38 47 38 H46 V20Z" fill="black" opacity="0.12" />
  <!-- Bottom edge -->
  <rect x="4" y="34" width="46" height="4" rx="0 0 3 3" fill="black" opacity="0.08" />
  <!-- Left antenna -->
  <rect x="14" y="8" width="2" height="13" rx="1" fill="#4d7cfe" />
  <rect x="14" y="8" width="1" height="13" rx="0.5" fill="white" opacity="0.15" />
  <circle cx="15" cy="7" r="2.5" fill="#4d7cfe" />
  <circle cx="14.3" cy="6.3" r="1" fill="white" opacity="0.2" />
  <!-- Right antenna -->
  <rect x="38" y="10" width="2" height="11" rx="1" fill="#4d7cfe" />
  <rect x="38" y="10" width="1" height="11" rx="0.5" fill="white" opacity="0.15" />
  <circle cx="39" cy="9" r="2.5" fill="#4d7cfe" />
  <circle cx="38.3" cy="8.3" r="1" fill="white" opacity="0.2" />
  <!-- Signal arcs - left -->
  <path d="M11 6 Q8 4 9 1" stroke="white" stroke-width="1" fill="none" opacity="0.2" stroke-linecap="round" />
  <path d="M12.5 5 Q10 3.5 10.5 1.5" stroke="white" stroke-width="0.8" fill="none" opacity="0.12" stroke-linecap="round" />
  <!-- Signal arcs - right -->
  <path d="M43 8 Q46 6 45 3" stroke="white" stroke-width="1" fill="none" opacity="0.2" stroke-linecap="round" />
  <path d="M41.5 7 Q44 5.5 43.5 3.5" stroke="white" stroke-width="0.8" fill="none" opacity="0.12" stroke-linecap="round" />
  <!-- Power LED -->
  <circle cx="9" cy="29" r="2.2" fill="#4caf50" />
  <circle cx="8.5" cy="28.5" r="0.8" fill="white" opacity="0.45" />
  <!-- Brand line -->
  <rect x="13" y="23" width="10" height="2" rx="1" fill="white" opacity="0.15" />
  <!-- Port row - 6 ethernet ports -->
  <rect x="8" y="31" width="5" height="5" rx="0.8" fill="black" opacity="0.3" />
  <rect x="8.4" y="31.4" width="4.2" height="4.2" rx="0.5" fill="white" opacity="0.12" />
  <rect x="14.5" y="31" width="5" height="5" rx="0.8" fill="black" opacity="0.3" />
  <rect x="14.9" y="31.4" width="4.2" height="4.2" rx="0.5" fill="white" opacity="0.12" />
  <rect x="21" y="31" width="5" height="5" rx="0.8" fill="black" opacity="0.3" />
  <rect x="21.4" y="31.4" width="4.2" height="4.2" rx="0.5" fill="white" opacity="0.12" />
  <rect x="27.5" y="31" width="5" height="5" rx="0.8" fill="black" opacity="0.3" />
  <rect x="27.9" y="31.4" width="4.2" height="4.2" rx="0.5" fill="white" opacity="0.12" />
  <rect x="34" y="31" width="5" height="5" rx="0.8" fill="black" opacity="0.3" />
  <rect x="34.4" y="31.4" width="4.2" height="4.2" rx="0.5" fill="white" opacity="0.12" />
  <rect x="40.5" y="31" width="5" height="5" rx="0.8" fill="black" opacity="0.3" />
  <rect x="40.9" y="31.4" width="4.2" height="4.2" rx="0.5" fill="white" opacity="0.12" />
  <!-- Port status LEDs -->
  <circle cx="10.5" cy="24.5" r="1" fill="#4caf50" opacity="0.8" />
  <circle cx="17" cy="24.5" r="1" fill="#4caf50" opacity="0.6" />
  <circle cx="23.5" cy="24.5" r="1" fill="#ffab40" opacity="0.6" />
  <circle cx="30" cy="24.5" r="1" fill="#4caf50" opacity="0.5" />
  <circle cx="36.5" cy="24.5" r="1" fill="white" opacity="0.15" />
  <circle cx="43" cy="24.5" r="1" fill="white" opacity="0.15" />
</svg>
