<svg width="128" height="128" viewBox="0 0 128 128" fill="none" xmlns="http://www.w3.org/2000/svg">
  <defs>
    <linearGradient id="sv-top" x1="0" y1="0" x2="0" y2="1">
      <stop offset="0%" stop-color="#F0F2F5"/>
      <stop offset="100%" stop-color="#E2E6EC"/>
    </linearGradient>
  </defs>
  <!-- Left face -->
  <path d="M58,44 L30,30 L30,104 L58,118 Z" fill="#C5CBD4"/>
  <!-- Right face -->
  <path d="M58,44 L98,24 L98,98 L58,118 Z" fill="#AEB6C4"/>
  <!-- Top face -->
  <path d="M58,44 L98,24 L70,10 L30,30 Z" fill="url(#sv-top)"/>
  <!-- Bay divider 1 -->
  <line x1="58" y1="69" x2="98" y2="49" stroke="#9AA2B0" stroke-width="1"/>
  <line x1="58" y1="69" x2="30" y2="55" stroke="#B0B8C4" stroke-width="1"/>
  <!-- Bay divider 2 -->
  <line x1="58" y1="94" x2="98" y2="74" stroke="#9AA2B0" stroke-width="1"/>
  <line x1="58" y1="94" x2="30" y2="80" stroke="#B0B8C4" stroke-width="1"/>
  <!-- Blue LED circles - right face -->
  <circle cx="66" cy="54" r="4" fill="currentColor" opacity="0.85"/>
  <circle cx="66" cy="54" r="2" fill="currentColor"/>
  <circle cx="66" cy="79" r="4" fill="currentColor" opacity="0.85"/>
  <circle cx="66" cy="79" r="2" fill="currentColor"/>
  <circle cx="66" cy="104" r="4" fill="currentColor" opacity="0.6"/>
  <circle cx="66" cy="104" r="2" fill="currentColor" opacity="0.8"/>
  <!-- Drive slots - right face bay 1 -->
  <line x1="74" y1="49" x2="92" y2="40" stroke="#9AA2B0" stroke-width="1.5" stroke-linecap="round"/>
  <line x1="74" y1="53" x2="88" y2="46" stroke="#9AA2B0" stroke-width="1.2" stroke-linecap="round" opacity="0.5"/>
  <!-- Drive slots - bay 2 -->
  <line x1="74" y1="74" x2="92" y2="65" stroke="#9AA2B0" stroke-width="1.5" stroke-linecap="round"/>
  <line x1="74" y1="78" x2="88" y2="71" stroke="#9AA2B0" stroke-width="1.2" stroke-linecap="round" opacity="0.5"/>
  <!-- Drive slots - bay 3 -->
  <line x1="74" y1="99" x2="92" y2="90" stroke="#9AA2B0" stroke-width="1.5" stroke-linecap="round"/>
  <line x1="74" y1="103" x2="88" y2="96" stroke="#9AA2B0" stroke-width="1.2" stroke-linecap="round" opacity="0.5"/>
  <!-- Ventilation left face -->
  <line x1="34" y1="36" x2="46" y2="30" stroke="#B8C0CC" stroke-width="0.8" opacity="0.5"/>
  <line x1="34" y1="40" x2="46" y2="34" stroke="#B8C0CC" stroke-width="0.8" opacity="0.5"/>
  <line x1="34" y1="44" x2="46" y2="38" stroke="#B8C0CC" stroke-width="0.8" opacity="0.5"/>
</svg>
