<?xml version="1.0" encoding="UTF-8"?>
<svg version="1.1" xmlns="http://www.w3.org/2000/svg" width="96" height="96" viewBox="0 0 512 512">
<path d="M0 0 C0.80314717 -0.00465992 1.60629434 -0.00931984 2.4337793 -0.01412097 C5.11796826 -0.02604688 7.8016488 -0.01668488 10.48584175 -0.00736332 C12.43252816 -0.01153729 14.37921215 -0.01701515 16.32589161 -0.02368313 C21.67010202 -0.03814818 27.01415834 -0.03388965 32.35837722 -0.02651632 C38.12400435 -0.02178959 43.88959791 -0.03429013 49.65521431 -0.04453373 C60.94860267 -0.06173683 72.24193543 -0.06255859 83.5353335 -0.05732083 C92.71412525 -0.05328066 101.89290055 -0.05472086 111.07169151 -0.06006908 C112.37769087 -0.06081751 113.68369023 -0.06156593 115.02926532 -0.06233703 C117.68233974 -0.0638685 120.33541416 -0.06540684 122.98848857 -0.066952 C140.80384552 -0.0770105 158.61919659 -0.08094327 176.43455505 -0.07332611 C177.13108478 -0.07302894 177.82761451 -0.07273176 178.54525121 -0.07242559 C184.20142246 -0.06997669 189.85759365 -0.06736509 195.51376482 -0.06474145 C217.5748901 -0.05463971 239.63593925 -0.06299346 261.69705391 -0.086236 C286.48907144 -0.11231349 311.2810427 -0.12510568 336.07307446 -0.11804825 C349.19770618 -0.11455357 362.32227539 -0.11680455 375.44689751 -0.13429928 C386.61976283 -0.14900756 397.79252163 -0.14967462 408.96538483 -0.13222837 C414.66584609 -0.12370471 420.36611695 -0.12160233 426.06656837 -0.13687992 C431.28632356 -0.15069603 436.50572469 -0.14600323 441.72545923 -0.12664068 C443.61232932 -0.12287094 445.49922755 -0.12583063 447.38607262 -0.13625234 C468.04899024 -0.24225265 468.04899024 -0.24225265 476.32840157 6.56391048 C476.93683907 7.30769955 477.54527657 8.05148861 478.17215157 8.81781673 C478.80121407 9.55902767 479.43027657 10.30023861 480.07840157 11.06391048 C483.76197903 16.41773753 483.96948533 21.05705364 483.96267891 27.35809994 C483.97275475 28.70054272 483.97275475 28.70054272 483.98303413 30.07010555 C484.00200564 33.02382645 484.00593802 35.97731998 484.00808907 38.93109798 C484.01451795 40.9898707 484.02124638 43.04864249 484.02826118 45.10741329 C484.0402321 49.4222796 484.04394223 53.73706586 484.04275703 58.05194759 C484.04255394 63.56992552 484.069847 69.08738786 484.10430145 74.60524368 C484.1265847 78.8578745 484.13059412 83.11038155 484.12953758 87.36306477 C484.13189173 89.39675516 484.14070475 91.43044906 484.15620232 93.46408176 C484.17588939 96.31453387 484.17001333 99.16387841 484.15799141 102.01434994 C484.16923042 102.84735119 484.18046944 103.68035244 484.19204903 104.53859615 C484.120087 111.28350281 482.18902032 116.44829437 477.77762032 121.58734798 C471.42473972 126.90513602 467.25265829 129.38031673 458.67215157 129.38031673 C458.67215157 137.63031673 458.67215157 145.88031673 458.67215157 154.38031673 C460.98215157 154.38031673 463.29215157 154.38031673 465.67215157 154.38031673 C473.54833258 156.81948006 478.48311414 162.49832668 482.67215157 169.38031673 C483.97695967 173.29474105 483.8444376 177.03342462 483.86502266 181.11518002 C483.87320015 182.00824352 483.88137764 182.90130703 483.88980293 183.82143307 C483.91464218 186.78115834 483.93117164 189.74083559 483.94558907 192.70062923 C483.95357458 194.21869482 483.95357458 194.21869482 483.96172142 195.7674284 C483.98845006 201.12699024 484.00782356 206.48652884 484.02224922 211.84613705 C484.03557491 216.27505871 484.06340296 220.70351817 484.10428047 225.13226986 C484.15368498 230.48501681 484.17838032 235.83734527 484.1854763 241.19031048 C484.19217581 243.22599383 484.20736385 245.26166833 484.23136711 247.29722118 C484.26313603 250.15499921 484.2630375 253.0111766 484.25564766 255.86908627 C484.28025566 257.11790836 484.28025566 257.11790836 484.30536079 258.39195919 C484.22287633 266.23092885 481.03496958 272.27824408 475.48465157 277.75531673 C470.71807489 281.5266741 464.71943375 283.38031673 458.67215157 283.38031673 C458.67215157 291.30031673 458.67215157 299.22031673 458.67215157 307.38031673 C462.30215157 308.04031673 465.93215157 308.70031673 469.67215157 309.38031673 C476.60063905 313.53740922 480.11029861 318.25661082 483.67215157 325.38031673 C483.78643585 328.2669635 483.84001765 331.13002471 483.84915352 334.01752377 C483.85901031 335.35930943 483.85901031 335.35930943 483.86906624 336.72820187 C483.88882764 339.69817847 483.90047016 342.66810435 483.91043282 345.63812923 C483.91450834 346.65233818 483.91858387 347.66654713 483.9227829 348.71148968 C483.94365898 354.08286747 483.95795221 359.45421962 483.96731758 364.82562923 C483.97836566 370.36720377 484.01274282 375.90837495 484.05248928 381.44980717 C484.07867536 385.71529528 484.08701136 389.98068778 484.09059906 394.2462492 C484.0954624 396.2883224 484.10706914 398.3303914 484.12563705 400.37238598 C484.15006321 403.23749278 484.14905666 406.10156282 484.14212227 408.96674252 C484.15493233 409.8044569 484.16774239 410.64217129 484.18094063 411.50527096 C484.11824339 418.64398109 481.95481422 423.73723366 477.29715157 429.13031673 C470.42935396 435.01700039 466.19285127 436.51333538 457.28152657 436.47797298 C456.57691292 436.47655804 455.87229927 436.47514309 455.14633369 436.47368526 C452.90489572 436.46810607 450.66355914 436.45555747 448.42215157 436.44281673 C446.89871551 436.43779904 445.37527789 436.43323661 443.85183907 436.42914486 C440.12524385 436.41814348 436.39870761 436.4008932 432.67215157 436.38031673 C432.54123116 437.01332699 432.41031075 437.64633724 432.27542305 438.29852962 C431.67215157 440.38031673 431.67215157 440.38031673 430.01980782 441.68891048 C391.27621331 460.82890845 338.10930774 459.46567853 295.69638252 461.29175472 C293.78950198 461.37518254 291.88291215 461.46518091 289.97635078 461.5556097 C105.37198991 470.09295973 105.37198991 470.09295973 23.67215157 440.38031673 C23.03640938 438.28021908 23.03640938 438.28021908 22.67215157 436.38031673 C21.71437813 436.401264 20.75660469 436.42221127 19.76980782 436.4437933 C16.1841878 436.51671152 12.59863203 436.56230231 9.0124836 436.6000433 C7.46647269 436.62004177 5.9205363 436.64725004 4.37478828 436.68207455 C-5.6917592 436.90303169 -13.07305691 436.91854578 -21.07784843 430.00531673 C-26.90456814 423.20747708 -28.47688532 418.43088081 -28.50485039 409.62958431 C-28.51142159 408.73491451 -28.51799278 407.84024471 -28.52476311 406.91846371 C-28.54449297 403.95392428 -28.55615902 400.98943554 -28.56612968 398.02484798 C-28.57224298 396.50491017 -28.57224298 396.50491017 -28.57847977 394.95426655 C-28.59934077 389.58936803 -28.61364147 384.22449509 -28.62301445 378.85956478 C-28.63406927 373.32586606 -28.66845859 367.79257051 -28.70818615 362.25901413 C-28.73436981 357.99781722 -28.74270793 353.73671603 -28.74629593 349.47544575 C-28.75115859 347.43616359 -28.76276341 345.39688562 -28.78133392 343.35768223 C-28.8057587 340.49747357 -28.80475398 337.63830347 -28.79781914 334.77802181 C-28.8106292 333.94187847 -28.82343925 333.10573513 -28.8366375 332.24425411 C-28.77714089 325.48235072 -26.79899397 320.4287823 -22.53878593 315.17328548 C-16.90748406 310.24889172 -10.92302217 307.38031673 -3.32784843 307.38031673 C-3.32784843 299.46031673 -3.32784843 291.54031673 -3.32784843 283.38031673 C-6.95784843 282.72031673 -10.58784843 282.06031673 -14.32784843 281.38031673 C-21.25633592 277.22322424 -24.76599548 272.50402265 -28.32784843 265.38031673 C-28.44213272 262.49366997 -28.49571452 259.63060876 -28.50485039 256.7431097 C-28.51142159 255.84858593 -28.51799278 254.95406216 -28.52476311 254.0324316 C-28.54452451 251.062455 -28.55616702 248.09252912 -28.56612968 245.12250423 C-28.57020521 244.10829529 -28.57428074 243.09408634 -28.57847977 242.04914379 C-28.59935585 236.677766 -28.61364907 231.30641385 -28.62301445 225.93500423 C-28.63406253 220.3934297 -28.66843969 214.85225852 -28.70818615 209.3108263 C-28.73437223 205.04533819 -28.74270823 200.77994569 -28.74629593 196.51438427 C-28.75115927 194.47231107 -28.76276601 192.43024206 -28.78133392 190.38824749 C-28.80576008 187.52314069 -28.80475353 184.65907065 -28.79781914 181.79389095 C-28.8106292 180.95617657 -28.82343925 180.11846218 -28.8366375 179.25536251 C-28.77394026 172.11665238 -26.61051109 167.02339981 -21.95284843 161.63031673 C-15.52900392 156.1241643 -11.94658805 154.38031673 -3.32784843 154.38031673 C-3.32784843 146.13031673 -3.32784843 137.88031673 -3.32784843 129.38031673 C-6.29784843 129.05031673 -9.26784843 128.72031673 -12.32784843 128.38031673 C-18.83035072 125.83814298 -24.20900882 120.492124 -27.38635063 114.32619381 C-28.67021034 110.30909163 -28.62290507 106.5955217 -28.61837578 102.40253353 C-28.625093 101.50757168 -28.63181023 100.61260983 -28.638731 99.69052792 C-28.65770251 96.73680702 -28.66163488 93.78331349 -28.66378593 90.82953548 C-28.67021481 88.77076277 -28.67694324 86.71199098 -28.68395805 84.65322018 C-28.69592897 80.33835387 -28.6996391 76.02356761 -28.6984539 71.70868587 C-28.69825081 66.19070795 -28.72554386 60.67324561 -28.75999832 55.15538979 C-28.78228157 50.90275897 -28.78629099 46.65025191 -28.78523445 42.3975687 C-28.7875886 40.36387831 -28.79640162 38.33018441 -28.81189919 36.2965517 C-28.83158625 33.4460996 -28.8257102 30.59675506 -28.81368828 27.74628353 C-28.82492729 26.91328228 -28.83616631 26.08028103 -28.8477459 25.22203732 C-28.77578158 18.47691652 -26.8272448 13.34703721 -22.46847343 8.17328548 C-21.84456718 7.6434808 -21.22066093 7.11367611 -20.57784843 6.56781673 C-19.96425468 6.02512142 -19.35066093 5.48242611 -18.71847343 4.92328548 C-12.68647807 1.03008586 -7.00949902 -0.06439743 0 0 Z " fill="#0B75AC" transform="translate(28.327848434448242,24.619683265686035)"/>
<path d="M0 0 C0.6634619 -0.00235223 1.32692379 -0.00470446 2.0104906 -0.00712797 C4.24344188 -0.01380822 6.47633484 -0.01336004 8.70929527 -0.01294994 C10.32254321 -0.01624917 11.93579032 -0.01997487 13.54903638 -0.02409142 C17.99011103 -0.03411278 22.43117216 -0.03782843 26.87225652 -0.04048073 C31.65906744 -0.04438337 36.44586765 -0.05396172 41.23267174 -0.0626936 C52.7965941 -0.08245892 64.36051733 -0.0925242 75.92445236 -0.10142139 C81.36936981 -0.10580408 86.81428628 -0.11117093 92.25920296 -0.11641026 C110.35796532 -0.13342243 128.45672708 -0.14791687 146.55549622 -0.155159 C151.25254505 -0.15706891 155.94959387 -0.15898924 160.64664268 -0.16094494 C162.39779651 -0.16167055 162.39779651 -0.16167055 164.18432717 -0.16241082 C183.09840391 -0.17071212 202.01241742 -0.1960508 220.92646654 -0.22852562 C240.3425158 -0.26159073 259.75853293 -0.27960725 279.1746105 -0.28280324 C290.07707729 -0.28496881 300.97945188 -0.29372451 311.88189125 -0.31926441 C321.16640144 -0.34096388 330.45079703 -0.34902551 339.7353297 -0.33929763 C344.47175919 -0.3347508 349.20795219 -0.33666151 353.94434929 -0.35605907 C358.28347289 -0.37367603 362.62218722 -0.37270497 366.96131508 -0.35716178 C368.52798985 -0.35478349 370.09469285 -0.35912081 371.66132446 -0.37099043 C381.41210677 -0.44026976 390.23981695 -0.11904188 398.06998253 6.31781483 C398.67842003 7.06160389 399.28685753 7.80539295 399.91373253 8.57172108 C400.54279503 9.31293201 401.17185753 10.05414295 401.81998253 10.81781483 C405.50355999 16.17164188 405.7110663 20.81095798 405.70425987 27.11200428 C405.7109771 28.00696613 405.71769432 28.90192799 405.7246151 29.8240099 C405.7435866 32.77773079 405.74751898 35.73122432 405.74967003 38.68500233 C405.75609891 40.74377504 405.76282734 42.80254684 405.76984215 44.86131763 C405.78181306 49.17618394 405.7855232 53.4909702 405.784338 57.80585194 C405.78413491 63.32382986 405.81142796 68.8412922 405.84588242 74.35914803 C405.86816567 78.61177884 405.87217508 82.8642859 405.87111855 87.11696911 C405.8734727 89.1506595 405.88228571 91.1843534 405.89778328 93.21798611 C405.91747035 96.06843821 405.9115943 98.91778276 405.89957237 101.76825428 C405.91081139 102.60125553 405.9220504 103.43425678 405.93362999 104.2925005 C405.86166796 111.03740715 403.93060128 116.20219871 399.51920128 121.34125233 C393.16632068 126.65904036 388.99423925 129.13422108 380.41373253 129.13422108 C380.41373253 137.38422108 380.41373253 145.63422108 380.41373253 154.13422108 C253.36373253 154.13422108 126.31373253 154.13422108 -4.58626747 154.13422108 C-4.58626747 145.88422108 -4.58626747 137.63422108 -4.58626747 129.13422108 C-7.22626747 128.80422108 -9.86626747 128.47422108 -12.58626747 128.13422108 C-18.63800914 126.23923126 -23.28783966 122.54403188 -26.58626747 117.13422108 C-29.16524119 111.22198326 -30.02639344 106.50381378 -29.99032021 100.09125233 C-29.99718346 99.22511311 -30.00404671 98.35897388 -30.01111794 97.46658802 C-30.02929907 94.62646182 -30.02556139 91.78689252 -30.01986122 88.94672108 C-30.02442671 86.95949596 -30.02973338 84.97227242 -30.03574562 82.98505116 C-30.04465931 78.82930537 -30.04227287 74.67375195 -30.03231239 70.51801014 C-30.02081638 65.20522412 -30.04105298 59.89310215 -30.07022953 54.58040333 C-30.0886154 50.47959683 -30.08829444 46.37894884 -30.08259201 42.27811146 C-30.08243914 40.31978898 -30.08845545 38.36145554 -30.10088348 36.40317249 C-30.11583945 33.66075958 -30.10508342 30.91956581 -30.08797646 28.17718983 C-30.09764442 27.37695393 -30.10731239 26.57671803 -30.11727333 25.75223255 C-30.0237536 18.55614573 -27.47822417 12.4511973 -22.33626747 7.32172108 C-18.70888627 3.89716119 -15.34852739 2.5394781 -10.58626747 1.13422108 C-9.98347643 0.94878626 -9.38068538 0.76335145 -8.75962794 0.57229739 C-5.81428112 -0.02138539 -3.00496678 0.00453988 0 0 Z " fill="#0B75AD" transform="translate(106.58626747131348,24.865778923034668)"/>
<path d="M0 0 C127.05 0 254.1 0 385 0 C385 8.58 385 17.16 385 26 C257.95 26 130.9 26 0 26 C0 17.42 0 8.84 0 0 Z " fill="#003B76" transform="translate(102,307)"/>
<path d="M0 0 C48.90230762 -0.0227883 97.80461457 -0.04049711 146.70692646 -0.05106533 C152.4738071 -0.05231611 158.24068773 -0.05361043 164.00756836 -0.05493164 C165.15570212 -0.05519395 166.30383588 -0.05545626 167.48676158 -0.05572652 C186.10321731 -0.0600837 204.71966997 -0.06797151 223.33612388 -0.0771528 C242.42316797 -0.08648801 261.51021044 -0.09205533 280.59725672 -0.09408849 C292.38508587 -0.095464 304.17290634 -0.09981607 315.96073283 -0.10791647 C324.03238901 -0.11318229 332.10404067 -0.11480467 340.17569845 -0.11350138 C344.84001704 -0.11285774 349.50432041 -0.11387839 354.16863632 -0.11920547 C358.43145433 -0.12403876 362.69424675 -0.12433912 366.95706589 -0.12089889 C368.50619912 -0.12047313 370.05533389 -0.12176946 371.60446405 -0.12488318 C373.69630212 -0.12884613 375.78804551 -0.12676406 377.87988186 -0.12304783 C379.62906356 -0.12361741 379.62906356 -0.12361741 381.41358227 -0.1241985 C384 0 384 0 385 1 C385 9.25 385 17.5 385 26 C257.95 26 130.9 26 0 26 C0 17.42 0 8.84 0 0 Z " fill="#003B76" transform="translate(102,153)"/>
<path d="M0 0 C135.3 0 270.6 0 410 0 C409 4 409 4 407.34765625 5.30859375 C368.60406175 24.44859172 315.43715618 23.0853618 273.02423096 24.91143799 C271.11735041 24.99486581 269.21076059 25.08486418 267.30419922 25.17529297 C82.69983834 33.71264299 82.69983834 33.71264299 1 4 C0.67 2.68 0.34 1.36 0 0 Z " fill="#F0F9FF" transform="translate(51,461)"/>
<path d="M0 0 C0.78145386 -0.00043808 1.56290771 -0.00087616 2.36804199 -0.00132751 C4.9220579 0.00074372 7.47539726 0.02399471 10.02929688 0.04760742 C11.8114791 0.05320933 13.59366598 0.05747661 15.37585449 0.06047058 C20.04480966 0.07187258 24.7134806 0.10129932 29.38232422 0.13458252 C34.15523434 0.16538401 38.92819081 0.17899738 43.70117188 0.1940918 C53.05025443 0.22617385 62.39912693 0.27731345 71.74804688 0.34057617 C69.12314039 1.71996162 66.80668915 2.63378596 63.93554688 3.52807617 C58.28961516 5.66238555 54.47353357 9.18143354 51.5770874 14.48445129 C47.91345387 23.49625421 48.14331189 32.34794702 48.13867188 41.91479492 C48.12366582 43.69270821 48.10693365 45.47060768 48.08856201 47.24848938 C48.04514819 51.8926157 48.02494747 56.53655407 48.00982666 61.18084717 C47.98669423 66.77206221 47.93429499 72.36307267 47.8868866 77.95412445 C47.81836673 86.41632797 47.7866802 94.87794605 47.74804688 103.34057617 C22.66804688 103.34057617 -2.41195313 103.34057617 -28.25195312 103.34057617 C-28.41238836 82.44834304 -28.41238836 82.44834304 -28.44726562 73.51635742 C-28.47114133 67.43076561 -28.49933212 61.34541542 -28.55371094 55.26000977 C-28.59729518 50.35166787 -28.62111689 45.44358523 -28.6314621 40.5350647 C-28.63883092 38.666025 -28.65322049 36.79699887 -28.67487335 34.92807007 C-28.70407488 32.3022437 -28.7079022 29.67747729 -28.70605469 27.05151367 C-28.72043579 26.2854631 -28.73481689 25.51941254 -28.74963379 24.73014832 C-28.70020788 18.20253341 -26.59932322 13.12684529 -22.39257812 8.13354492 C-21.76867187 7.60374023 -21.14476562 7.07393555 -20.50195312 6.52807617 C-19.88835938 5.98538086 -19.27476563 5.44268555 -18.64257812 4.88354492 C-12.62883642 1.00212666 -6.98911096 -0.10480144 0 0 Z " fill="#B5D4E5" transform="translate(28.251953125,24.659423828125)"/>
<path d="M0 0 C0.76121658 -0.00014603 1.52243317 -0.00029205 2.30671692 -0.0004425 C4.82275238 0.00025415 7.3387138 0.00803501 9.85473633 0.01586914 C11.59922749 0.0177342 13.34371918 0.01915769 15.08821106 0.02015686 C19.6798548 0.02397513 24.2714669 0.03379955 28.86309814 0.04486084 C33.54845756 0.05508978 38.23382209 0.05965766 42.91918945 0.06469727 C52.11256272 0.07542242 61.30591252 0.09249058 70.49926758 0.11352539 C68.49257883 2.12021414 67.3069669 2.67777412 64.74926758 3.73852539 C58.563628 6.78082725 55.66853228 11.4591178 52.94848633 17.6340332 C50.48080269 25.22077772 51.01612507 33.37961322 50.98754883 41.27368164 C50.97068195 43.03203062 50.95252903 44.79036769 50.93315125 46.5486908 C50.88586309 51.15005775 50.8559172 55.7513764 50.82971191 60.35290527 C50.7997989 65.05901627 50.75330573 69.76496117 50.70825195 74.47094727 C50.6224602 83.6850527 50.55500821 92.89919255 50.49926758 102.11352539 C36.0929848 102.70489965 21.6981796 103.28768126 7.27783203 103.24389648 C5.13608108 103.2383952 2.99452916 103.24398806 0.8527832 103.25024414 C-0.57364953 103.24958495 -2.00008215 103.24830711 -3.42651367 103.24633789 C-4.64765869 103.24520996 -5.86880371 103.24408203 -7.12695312 103.24291992 C-13.26328522 103.13858047 -19.38402506 102.58478807 -25.50073242 102.11352539 C-25.59357543 91.29952537 -25.66457 80.4856208 -25.70798111 69.6713028 C-25.7288205 64.64929587 -25.7570714 59.62756244 -25.80249023 54.60571289 C-25.84607822 49.75572536 -25.86989696 44.90600025 -25.88024139 40.05583191 C-25.88760955 38.2091204 -25.90199783 36.36242261 -25.92365265 34.51582336 C-25.95285924 31.92112641 -25.9566813 29.32750195 -25.95483398 26.73266602 C-25.96921509 25.97596619 -25.98359619 25.21926636 -25.99841309 24.43963623 C-25.94587123 17.58090296 -23.58587159 12.52789706 -19.12573242 7.36352539 C-12.78265902 1.92660533 -8.24651059 -0.04126029 0 0 Z " fill="#B5D4E5" transform="translate(25.500732421875,178.886474609375)"/>
<path d="M0 0 C1.62236239 0.02808604 3.24474959 0.05477067 4.86715698 0.0801239 C9.10557567 0.15007413 13.34339085 0.2388672 17.58135986 0.33178711 C21.91861772 0.42348174 26.25618014 0.49707843 30.59375 0.57226562 C39.081127 0.7220197 47.56795189 0.89171088 56.0546875 1.07421875 C54.0546875 3.07421875 54.0546875 3.07421875 50.8046875 4.76171875 C44.58993285 8.28341305 40.80658863 13.2302833 38.65927124 20.07052612 C37.2506435 27.06886973 37.56838781 34.33982441 37.54296875 41.453125 C37.52610234 43.23389407 37.50794949 45.01465139 37.48857117 46.7953949 C37.44127787 51.45594608 37.41133527 56.11644954 37.38513184 60.77716064 C37.34995191 66.38333239 37.29299851 71.98932101 37.23973846 77.59534454 C37.16146718 86.08827864 37.11067841 94.58097701 37.0546875 103.07421875 C11.9746875 103.07421875 -13.1053125 103.07421875 -38.9453125 103.07421875 C-39.10574774 82.18198562 -39.10574774 82.18198562 -39.140625 73.25 C-39.1645007 67.16440819 -39.1926915 61.079058 -39.24707031 54.99365234 C-39.29065455 50.08531045 -39.31447626 45.17722781 -39.32482147 40.26870728 C-39.33219029 38.39966758 -39.34657987 36.53064145 -39.36823273 34.66171265 C-39.39743426 32.03588628 -39.40126157 29.41111986 -39.39941406 26.78515625 C-39.41379517 26.01910568 -39.42817627 25.25305511 -39.44299316 24.46379089 C-39.39356649 17.93607477 -37.25891957 12.92834101 -33.15625 7.8671875 C-32.55039062 7.33738281 -31.94453125 6.80757813 -31.3203125 6.26171875 C-30.72992188 5.71902344 -30.13953125 5.17632812 -29.53125 4.6171875 C-20.33677341 -0.86894279 -10.31478078 -0.25158913 0 0 Z " fill="#B5D4E5" transform="translate(38.9453125,331.92578125)"/>
<path d="M0 0 C0.33 0 0.66 0 1 0 C1.00586624 1.05964966 1.01173248 2.11929932 1.01777649 3.21105957 C1.07508328 13.21569345 1.14788648 23.22011162 1.23571491 33.22452545 C1.28037033 38.36744102 1.31963715 43.51027824 1.34643555 48.65332031 C1.37251661 53.62015331 1.4129531 58.58668408 1.46318626 63.55332947 C1.4798225 65.44461802 1.49135692 67.33595881 1.49761391 69.22731018 C1.50729035 71.88428142 1.53539151 74.54048509 1.56762695 77.19726562 C1.56619186 77.97266693 1.56475677 78.74806824 1.5632782 79.54696655 C1.70139888 87.63950709 4.09110623 94.22241498 10 100 C15.17124871 103.37351847 19.86785592 104.46696398 26 106 C26 114.25 26 122.5 26 131 C21.29066918 131.78488847 17.50457511 132.09704836 12.80126953 132.02172852 C12.10788986 132.01212097 11.41451019 132.00251343 10.70011902 131.99261475 C8.42757252 131.95985661 6.1552325 131.91943762 3.8828125 131.87890625 C2.29955759 131.8545824 0.71629522 131.83074001 -0.86697388 131.80735779 C-5.01969959 131.74474203 -9.17229196 131.67561252 -13.32489014 131.60510254 C-17.56809453 131.53421489 -21.81139293 131.46952049 -26.0546875 131.40429688 C-34.36989794 131.27557493 -42.68496164 131.13939527 -51 131 C-51 122.75 -51 114.5 -51 106 C-53.97 105.67 -56.94 105.34 -60 105 C-66.78814705 102.34615253 -71.85028285 96.81086221 -75.375 90.5625 C-76 88 -76 88 -76 80 C-50.92 80 -25.84 80 0 80 C0 53.6 0 27.2 0 0 Z " fill="#0D83B1" transform="translate(76,48)"/>
<path d="M0 0 C0.33 0 0.66 0 1 0 C1.00546844 1.58281265 1.00546844 1.58281265 1.01104736 3.19760132 C1.04808848 13.17221441 1.10596044 23.14652138 1.18390274 33.12090111 C1.22330721 38.24809368 1.25553013 43.37511631 1.27099609 48.50244141 C1.28620902 53.45637801 1.3207366 58.40984719 1.36830902 63.36357498 C1.38307512 65.2476252 1.39103826 67.13174217 1.39188385 69.01585007 C0.97704104 84.4672705 0.97704104 84.4672705 7.67901611 97.88119507 C11.3280197 101.35779029 15.30631301 103.27578845 20 105 C20 105.33 20 105.66 20 106 C9.96830868 106.09287433 -0.06327956 106.16385329 -10.09531403 106.20724869 C-14.75412738 106.22808137 -19.41264556 106.25631961 -24.07128906 106.30175781 C-28.57115054 106.3453703 -33.07072893 106.36916957 -37.57078552 106.37950897 C-39.28352817 106.38687279 -40.99625615 106.40125255 -42.70887756 106.42292023 C-60.62678916 106.64050027 -60.62678916 106.64050027 -68.75 99.625 C-74.63174864 92.76295992 -76 89.27098829 -76 80 C-50.92 80 -25.84 80 0 80 C0 53.6 0 27.2 0 0 Z " fill="#0882AF" transform="translate(76,355)"/>
<path d="M0 0 C9.74424329 -0.02256415 19.48846931 -0.04092273 29.23273277 -0.05181217 C33.75705305 -0.05703772 38.28135458 -0.06412944 42.80566406 -0.07543945 C47.16930959 -0.08627995 51.53293705 -0.09227932 55.896595 -0.09487724 C57.56401479 -0.09672939 59.23143355 -0.10034599 60.89884567 -0.10573006 C63.22864697 -0.11295589 65.55837295 -0.11399029 67.88818359 -0.11352539 C68.58229843 -0.11712067 69.27641327 -0.12071594 69.99156189 -0.12442017 C74.77189568 -0.11405216 74.77189568 -0.11405216 77 1 C77 9.25 77 17.5 77 26 C71.95198524 26.72114497 67.78752971 27.10323285 62.77954102 27.02172852 C62.09576889 27.01212097 61.41199677 27.00251343 60.70750427 26.99261475 C58.47285643 26.95993179 56.23842343 26.91948536 54.00390625 26.87890625 C52.44450105 26.85457501 50.88508815 26.83073301 49.32566833 26.80735779 C45.24035807 26.74481551 41.15518586 26.6756659 37.07000732 26.60510254 C32.89374019 26.53414778 28.71737592 26.46949379 24.54101562 26.40429688 C16.36056721 26.27566991 8.18027067 26.13947417 0 26 C0 17.42 0 8.84 0 0 Z " fill="#248DB7" transform="translate(25,307)"/>
<path d="M0 0 C25.41 0 50.82 0 77 0 C77 8.25 77 16.5 77 25 C72.29066918 25.78488847 68.50457511 26.09704836 63.80126953 26.02172852 C62.76120003 26.0073172 62.76120003 26.0073172 61.70011902 25.99261475 C59.42757252 25.95985661 57.1552325 25.91943762 54.8828125 25.87890625 C53.29955759 25.8545824 51.71629522 25.83074001 50.13302612 25.80735779 C45.98030041 25.74474203 41.82770804 25.67561252 37.67510986 25.60510254 C33.43190547 25.53421489 29.18860707 25.46952049 24.9453125 25.40429688 C16.63010206 25.27557493 8.31503836 25.13939527 0 25 C0 16.75 0 8.5 0 0 Z " fill="#51A0C3" transform="translate(25,154)"/>
<path d="M0 0 C0.33 0 0.66 0 1 0 C1.00586624 1.05742905 1.01173248 2.11485809 1.01777649 3.20433044 C1.07511357 13.19393646 1.14793237 23.18332708 1.23571491 33.17271328 C1.28034716 38.30775302 1.31961899 43.44271473 1.34643555 48.57788086 C1.37253985 53.53823424 1.41299249 58.49828618 1.46318626 63.45845222 C1.47980687 65.34612324 1.49135096 67.23384633 1.49761391 69.12158012 C1.50730751 71.77595118 1.53542865 74.42955935 1.56762695 77.08374023 C1.56619186 77.85554626 1.56475677 78.62735229 1.5632782 79.42254639 C1.65908199 85.04622891 2.97357565 89.7674618 5 95 C0.34430036 96.58491903 -3.48582142 97.19078399 -8.3984375 96.97265625 C-10.66910327 96.99652211 -12.76067742 97.20350376 -15.0078125 97.49121094 C-20.17196679 98.07743238 -25.28333523 98.16165901 -30.4765625 98.16796875 C-31.44604828 98.17129715 -32.41553406 98.17462555 -33.41439819 98.17805481 C-35.44976328 98.18308599 -37.48513651 98.18546432 -39.52050781 98.18530273 C-42.62318452 98.18749872 -45.72551055 98.20572091 -48.828125 98.22460938 C-50.81510296 98.22754227 -52.8020826 98.22952776 -54.7890625 98.23046875 C-55.70902008 98.23765427 -56.62897766 98.24483978 -57.57681274 98.25224304 C-62.77066027 98.23390433 -67.1079781 97.79762937 -72 96 C-73.55859375 94.37109375 -73.55859375 94.37109375 -74.4375 92.4375 C-74.74558594 91.81746094 -75.05367188 91.19742188 -75.37109375 90.55859375 C-76 88 -76 88 -76 79 C-50.92 79 -25.84 79 0 79 C0 52.93 0 26.86 0 0 Z " fill="#50A0C3" transform="translate(76,202)"/>
<path d="M0 0 C0.33 0 0.66 0 1 0 C1 29.37 1 58.74 1 89 C-10.29529122 92.38858737 -10.29529122 92.38858737 -16.703125 92.67578125 C-17.41325745 92.70859695 -18.12338989 92.74141266 -18.8550415 92.77522278 C-27.8331706 93.14638197 -36.82210072 93.18605496 -45.80664062 93.18530273 C-48.78789777 93.18752829 -51.768806 93.20587962 -54.75 93.22460938 C-56.66145709 93.2275375 -58.5729159 93.22952618 -60.484375 93.23046875 C-61.8093399 93.24124702 -61.8093399 93.24124702 -63.16107178 93.25224304 C-71.27274576 93.22201695 -71.27274576 93.22201695 -75 91 C-76 88 -76 88 -76 80 C-50.92 80 -25.84 80 0 80 C0 53.6 0 27.2 0 0 Z " fill="#74AFCD" transform="translate(76,48)"/>
<path d="M0 0 C4.29 0 8.58 0 13 0 C13 25.41 13 50.82 13 77 C8.71 77 4.42 77 0 77 C0 51.59 0 26.18 0 0 Z " fill="#004B90" transform="translate(448,358)"/>
<path d="M0 0 C4.29 0 8.58 0 13 0 C13 25.41 13 50.82 13 77 C8.71 77 4.42 77 0 77 C0 51.59 0 26.18 0 0 Z " fill="#003F7B" transform="translate(371,358)"/>
<path d="M0 0 C4.29 0 8.58 0 13 0 C13 25.41 13 50.82 13 77 C8.71 77 4.42 77 0 77 C0 51.59 0 26.18 0 0 Z " fill="#004B90" transform="translate(448,205)"/>
<path d="M0 0 C4.29 0 8.58 0 13 0 C13 25.41 13 50.82 13 77 C8.71 77 4.42 77 0 77 C0 51.59 0 26.18 0 0 Z " fill="#003F7B" transform="translate(371,205)"/>
<path d="M0 0 C4.29 0 8.58 0 13 0 C13 25.41 13 50.82 13 77 C8.71 77 4.42 77 0 77 C0 51.59 0 26.18 0 0 Z " fill="#004B90" transform="translate(448,51)"/>
<path d="M0 0 C4.29 0 8.58 0 13 0 C13 25.41 13 50.82 13 77 C8.71 77 4.42 77 0 77 C0 51.59 0 26.18 0 0 Z " fill="#003F7B" transform="translate(371,51)"/>
<path d="M0 0 C0.33 0 0.66 0 1 0 C1 29.37 1 58.74 1 89 C-9.12582732 92.37527577 -9.12582732 92.37527577 -14.63378906 92.35644531 C-16.47049164 92.36094696 -16.47049164 92.36094696 -18.34429932 92.36553955 C-20.28535553 92.34701935 -20.28535553 92.34701935 -22.265625 92.328125 C-23.6308369 92.32506013 -24.99605195 92.32318955 -26.36126709 92.32244873 C-29.20548705 92.31787431 -32.04941935 92.30355578 -34.89355469 92.28125 C-38.53049917 92.2528619 -42.16721927 92.24202406 -45.80426407 92.2375679 C-49.29141289 92.23240526 -52.77850608 92.21788016 -56.265625 92.203125 C-57.5677594 92.19887512 -58.8698938 92.19462524 -60.21148682 92.19024658 C-61.42334656 92.18063904 -62.6352063 92.17103149 -63.88378906 92.16113281 C-64.9469635 92.15430481 -66.01013794 92.14747681 -67.10552979 92.14044189 C-69.84011594 92.0077577 -72.33682123 91.61611482 -75 91 C-76 88 -76 88 -76 80 C-50.92 80 -25.84 80 0 80 C0 53.6 0 27.2 0 0 Z " fill="#74AFCD" transform="translate(76,355)"/>
<path d="M0 0 C3.96 0 7.92 0 12 0 C12 25.41 12 50.82 12 77 C8.04 77 4.08 77 0 77 C0 51.59 0 26.18 0 0 Z " fill="#00417F" transform="translate(474,51)"/>
<path d="M0 0 C3.96 0 7.92 0 12 0 C12 25.41 12 50.82 12 77 C8.04 77 4.08 77 0 77 C0 51.59 0 26.18 0 0 Z " fill="#004D94" transform="translate(423,51)"/>
<path d="M0 0 C3.96 0 7.92 0 12 0 C12 25.41 12 50.82 12 77 C8.04 77 4.08 77 0 77 C0 51.59 0 26.18 0 0 Z " fill="#004485" transform="translate(397,51)"/>
<path d="M0 0 C3.96 0 7.92 0 12 0 C12 25.08 12 50.16 12 76 C8.04 76 4.08 76 0 76 C0 50.92 0 25.84 0 0 Z " fill="#00417F" transform="translate(474,359)"/>
<path d="M0 0 C3.96 0 7.92 0 12 0 C12 25.08 12 50.16 12 76 C8.04 76 4.08 76 0 76 C0 50.92 0 25.84 0 0 Z " fill="#004D94" transform="translate(423,359)"/>
<path d="M0 0 C3.96 0 7.92 0 12 0 C12 25.08 12 50.16 12 76 C8.04 76 4.08 76 0 76 C0 50.92 0 25.84 0 0 Z " fill="#004485" transform="translate(397,359)"/>
<path d="M0 0 C3.96 0 7.92 0 12 0 C12 25.08 12 50.16 12 76 C8.04 76 4.08 76 0 76 C0 50.92 0 25.84 0 0 Z " fill="#00417F" transform="translate(474,205)"/>
<path d="M0 0 C3.96 0 7.92 0 12 0 C12 25.08 12 50.16 12 76 C8.04 76 4.08 76 0 76 C0 50.92 0 25.84 0 0 Z " fill="#004D94" transform="translate(423,205)"/>
<path d="M0 0 C3.96 0 7.92 0 12 0 C12 25.08 12 50.16 12 76 C8.04 76 4.08 76 0 76 C0 50.92 0 25.84 0 0 Z " fill="#004485" transform="translate(397,205)"/>
<path d="M0 0 C0.33 0 0.66 0 1 0 C1.13895997 10.88299194 1.24560063 21.76577321 1.31087303 32.64947128 C1.34219931 37.70315614 1.38469579 42.75623454 1.45263672 47.80957031 C1.51778304 52.68550838 1.55369628 57.56086281 1.56926346 62.43720245 C1.58035833 64.29843589 1.60202449 66.15963701 1.63438034 68.02062225 C1.67788269 70.62610625 1.68393699 73.22917278 1.68115234 75.83496094 C1.702724 76.60604187 1.72429565 77.3771228 1.746521 78.17156982 C1.7215271 80.33001709 1.7215271 80.33001709 1 84 C-1.79647827 86.52984619 -1.79647827 86.52984619 -5 88 C-8.9375 87.6875 -8.9375 87.6875 -10.77734375 87.26171875 C-13.95556095 86.88748228 -16.84371517 87.51034575 -20 88 C-33.72602816 89.15452573 -47.22538967 89.11849098 -60.97167969 88.35595703 C-64.48563944 88.16226878 -67.95560196 87.99960092 -71.4765625 88.03125 C-74 88 -74 88 -76 87 C-76 84.36 -76 81.72 -76 79 C-50.92 79 -25.84 79 0 79 C0 52.93 0 26.86 0 0 Z " fill="#75AFCD" transform="translate(76,202)"/>
<path d="M0 0 C0.763125 0.78375 1.52625 1.5675 2.3125 2.375 C5.462538 5.4517813 7.91802451 6.47926403 12 8 C12 8.33 12 8.66 12 9 C2.65498766 9.20096517 -6.69016298 9.3845889 -16.03593254 9.54658794 C-20.3763864 9.62235925 -24.71656509 9.70391361 -29.05664062 9.79907227 C-33.25156885 9.89082922 -37.4465246 9.96688829 -41.64194107 10.03244972 C-43.23586627 10.06004347 -44.82970703 10.09312235 -46.42339706 10.13199425 C-66.80039098 10.62018134 -66.80039098 10.62018134 -74.625 4.375 C-75.40875 3.59125 -76.1925 2.8075 -77 2 C-77 1.67 -77 1.34 -77 1 C-76.39802292 1.00222061 -75.79604584 1.00444122 -75.17582703 1.00672913 C-68.86453856 1.02899189 -62.55326139 1.04399348 -56.24194336 1.05493164 C-53.89200385 1.05993529 -51.54206741 1.06674027 -49.19213867 1.07543945 C-45.79865761 1.08767989 -42.405218 1.09326815 -39.01171875 1.09765625 C-37.97480392 1.10281754 -36.9378891 1.10797882 -35.86955261 1.11329651 C-29.98492164 1.11374089 -24.21533429 0.83550243 -18.36238098 0.21531677 C-15.23992368 -0.06927637 -12.13347614 0 -9 0 C-8.113125 -0.185625 -7.22625 -0.37125 -6.3125 -0.5625 C-3.66264611 -1.06382371 -2.47112583 -1.08111755 0 0 Z " fill="#0681AF" transform="translate(83,298)"/>
<path d="M0 0 C4.36350222 2.22291622 7.09544338 4.45022584 9 9 C9.77944541 15.01286459 8.38668967 18.20218963 5 23 C0.64812411 25.77779312 -4.00500391 25.79447969 -9 25 C-12.12177233 23.31712073 -14.39137035 21.2172593 -16 18 C-16.61029595 12.58580311 -17.05214882 8.39338627 -13.6875 3.9375 C-8.9654727 0.53324776 -5.8512497 -0.8976349 0 0 Z " fill="#F13A4F" transform="translate(119,384)"/>
<path d="M0 0 C3.88949792 2.00031321 6.38661858 4.95529031 8 9 C8.33403245 13.78779839 7.66898085 17.15021351 4.6875 20.9375 C-0.05512404 24.57718821 -2.86741083 25.63440578 -9 25 C-13.87070677 22.56464662 -16.15569877 20.12305898 -18 15 C-18.58197698 11.00930069 -18.20642575 9.37598975 -16.25 5.8125 C-11.52693135 -0.09133581 -7.40910787 -1.26211932 0 0 Z " fill="#3EC130" transform="translate(197,231)"/>
<path d="M0 0 C3.90686658 3.36172241 5.46940853 5.59892417 6.125 10.75 C5.51795276 15.69309898 3.54093949 18.65623492 -0.1484375 21.953125 C-3.96733885 24.35200166 -7.96696608 24.06526966 -12.3125 23.3125 C-15.43251504 21.62431551 -17.70297471 19.53155059 -19.3125 16.3125 C-19.81510166 11.19585036 -20.15352072 6.78428626 -17.5625 2.25 C-12.10587179 -2.44876318 -6.48613563 -3.30425777 0 0 Z " fill="#43C32C" transform="translate(199.3125,78.6875)"/>
<path d="M0 0 C4.20475482 1.6997945 6.20472472 3.8425204 8 8 C8.56872801 13.21334006 7.9156441 16.62653385 5 21 C1.1201152 24.42873541 -1.96388945 25.6628565 -7.0390625 25.390625 C-10.35419553 24.73023993 -12.46989603 23.16866055 -15 21 C-17.73053943 16.58985041 -17.80099226 12.03594145 -17 7 C-13.03722565 -0.35102007 -7.62651238 -0.66160596 0 0 Z " fill="#F13A4E" transform="translate(120,231)"/>
<path d="M0 0 C3.90686658 3.36172241 5.46940853 5.59892417 6.125 10.75 C5.48869077 15.93137516 3.42215537 18.82565254 -0.5 22.1875 C-4.50958237 23.79133295 -8.05938487 24.13471909 -12.3125 23.3125 C-15.38015423 21.59053193 -17.71571354 19.50607293 -19.3125 16.3125 C-19.81510166 11.19585036 -20.15352072 6.78428626 -17.5625 2.25 C-12.10587179 -2.44876318 -6.48613563 -3.30425777 0 0 Z " fill="#F23A4E" transform="translate(122.3125,78.6875)"/>
<path d="M0 0 C3.45658479 2.04573386 4.7785359 3.66780385 7 7 C7.77669034 11.27179687 7.94859196 15.33323116 5.76171875 19.17578125 C2.37332474 23.23680931 0.11942361 24.80005438 -5.3125 25.3125 C-9.75886282 24.93568959 -11.63948122 23.90226622 -15 21 C-17.910372 16.634442 -18.6506249 13.20499921 -18 8 C-13.55685796 -0.1202251 -8.74576397 -1.0628088 0 0 Z " fill="#F7CF16" transform="translate(159,231)"/>
<path d="M0 0 C3.42484369 2.28322912 4.97163392 4.19326784 6.8125 7.875 C7.4322472 12.21323043 7.1467226 14.25430088 5.0625 18.125 C2.48039127 21.28091067 0.5344338 23.53402301 -3.5546875 24.34375 C-8.01176247 24.39928988 -11.2001954 24.40516696 -14.75 21.5 C-18.69583552 17.25063868 -18.52434812 14.2199232 -18.47265625 8.578125 C-18.08783774 4.93025636 -16.94765463 3.25179982 -14.1875 0.875 C-9.81782508 -2.28924735 -4.88787004 -1.7251306 0 0 Z " fill="#44C42B" transform="translate(198.1875,385.125)"/>
<path d="M0 0 C4.09613637 1.80992072 6.73195328 4.1359204 9 8 C9.87813403 12.79869205 9.4687275 16.11103405 7.1875 20.4375 C4.7935555 23.24183498 3.18335131 24.82597775 -0.5234375 25.37109375 C-8.24999078 25.55102718 -8.24999078 25.55102718 -12.0625 22.75 C-15.66034989 17.64337436 -16.42563106 14.62518963 -15.68359375 8.4140625 C-14.55140228 4.41580919 -12.45239681 3.18416941 -9 1 C-5.93570224 -0.53214888 -3.3834358 -0.22938548 0 0 Z " fill="#F7CF16" transform="translate(157,384)"/>
<path d="M0 0 C3.48478389 1.24926215 5.43164611 2.35586559 7.875 5.125 C9.45756719 9.16933838 9.68659164 12.71446096 9 17 C6.9087445 21.10782331 5.23264925 23.26810866 1 25 C-2.99539131 25.76806044 -6.53605023 25.86098715 -10.10546875 23.76171875 C-14.38659553 20.20441134 -15.77364655 17.94017242 -16.4375 12.25 C-16.41253207 7.74744944 -14.51128348 5.53249625 -11.5078125 2.34765625 C-8.10471212 -0.69397491 -4.33696148 -0.44419531 0 0 Z " fill="#F7CF16" transform="translate(157,77)"/>
<path d="M0 0 C1.73662334 3.22515763 2.8905928 6.51329166 4 10 C-4.91529834 12.72917296 -13.16934761 13.15893044 -22.46875 13.16796875 C-23.66302612 13.17129715 -24.85730225 13.17462555 -26.08776855 13.17805481 C-28.60587175 13.18310393 -31.12398159 13.18546376 -33.64208984 13.18530273 C-37.48676571 13.18749246 -41.33115596 13.20567881 -45.17578125 13.22460938 C-47.62760319 13.22754309 -50.07942649 13.22952803 -52.53125 13.23046875 C-53.67621948 13.23765427 -54.82118896 13.24483978 -56.00085449 13.25224304 C-67.02464749 13.22078151 -67.02464749 13.22078151 -72 11 C-73.9375 8.375 -73.9375 8.375 -75 6 C-74.15460411 6.00333092 -74.15460411 6.00333092 -73.29212952 6.00672913 C-67.33676804 6.02914204 -61.38141885 6.04405381 -55.42602539 6.05493164 C-53.21410636 6.05990874 -51.00219054 6.06669282 -48.7902832 6.07543945 C-24.20844611 6.56683837 -24.20844611 6.56683837 0 3 C0 2.01 0 1.02 0 0 Z " fill="#3494BB" transform="translate(77,134)"/>
<path d="M0 0 C1.41898766 2.64877696 2.31911019 5.08014819 3 8 C-9.41873287 11.38727549 -21.57273652 11.39844604 -34.37182617 11.28125 C-37.82286393 11.24990587 -41.27344278 11.24024558 -44.72460938 11.234375 C-46.94792217 11.22520905 -49.17123039 11.21483459 -51.39453125 11.203125 C-52.91987236 11.19675018 -52.91987236 11.19675018 -54.47602844 11.19024658 C-60.70290045 11.12869117 -66.8161479 10.7353535 -73 10 C-73.66 8.35 -74.32 6.7 -75 5 C-74.19313248 5.00444122 -73.38626495 5.00888245 -72.5549469 5.01345825 C-64.92007857 5.05367057 -57.2852622 5.08405297 -49.65031528 5.10362434 C-45.72589634 5.11402469 -41.80156551 5.12811468 -37.87719727 5.15087891 C-34.08409201 5.17274194 -30.29107108 5.18459677 -26.49790764 5.18975449 C-25.05675875 5.19342624 -23.61561404 5.2005957 -22.17450142 5.21146011 C-14.5255856 5.26678774 -7.41498919 5.06746925 0 3 C0 2.01 0 1.02 0 0 Z " fill="#4299BE" transform="translate(77,441)"/>
<path d="M0 0 C0.495 1.485 0.495 1.485 1 3 C-13.45024205 8.64518056 -30.51895868 7.18658268 -45.80664062 7.18530273 C-48.78789777 7.18752829 -51.768806 7.20587962 -54.75 7.22460938 C-56.66145709 7.2275375 -58.5729159 7.22952618 -60.484375 7.23046875 C-61.8093399 7.24124702 -61.8093399 7.24124702 -63.16107178 7.25224304 C-67.55789536 7.2358594 -71.00077923 7.06879219 -75 5 C-75 3.68 -75 2.36 -75 1 C-70.47699662 0.92704833 -66.13378915 0.97287231 -61.640625 1.49609375 C-55.31793339 2.15531785 -49.01213196 2.15025926 -42.66015625 2.13037109 C-40.63533987 2.12502729 -38.61074704 2.13033908 -36.5859375 2.13671875 C-29.51319433 2.12978469 -22.55135514 1.88426371 -15.51025391 1.21826172 C-12.62086096 0.96703459 -9.77365581 0.93077837 -6.875 1 C-3.29213766 1.15550635 -3.29213766 1.15550635 0 0 Z " fill="#4F9FC2" transform="translate(76,134)"/>
<path d="M0 0 C2 3 2 3 3 6 C-1.65569964 7.58491903 -5.48582142 8.19078399 -10.3984375 7.97265625 C-12.66910327 7.99652211 -14.76067742 8.20350376 -17.0078125 8.49121094 C-22.17196679 9.07743238 -27.28333523 9.16165901 -32.4765625 9.16796875 C-33.44604828 9.17129715 -34.41553406 9.17462555 -35.41439819 9.17805481 C-37.44976328 9.18308599 -39.48513651 9.18546432 -41.52050781 9.18530273 C-44.62318452 9.18749872 -47.72551055 9.20572091 -50.828125 9.22460938 C-52.81510296 9.22754227 -54.8020826 9.22952776 -56.7890625 9.23046875 C-57.70902008 9.23765427 -58.62897766 9.24483978 -59.57681274 9.25224304 C-64.7437083 9.23399949 -69.17380969 8.93603644 -74 7 C-74.33 6.01 -74.66 5.02 -75 4 C-74.03924561 4.00523682 -73.07849121 4.01047363 -72.08862305 4.01586914 C-67.62159651 4.03815155 -63.15456917 4.05214388 -58.6875 4.0625 C-57.88877472 4.06444366 -57.09004944 4.06638733 -56.26712036 4.06838989 C-46.20956403 4.08553151 -36.19295069 4.01453011 -26.15698242 3.26782227 C-21.18152742 2.90923629 -21.18152742 2.90923629 -19 4 C-12.52700672 4.42215174 -6.35099696 3.16799944 0 2 C0 1.34 0 0.68 0 0 Z " fill="#3694BB" transform="translate(78,291)"/>
<path d="M0 0 C0.495 1.98 0.495 1.98 1 4 C-1.1394387 4.23724045 -3.27889828 4.47429391 -5.41845703 4.71044922 C-7.03204383 4.89143219 -8.64511287 5.07716795 -10.25732422 5.27001953 C-22.76246228 6.7509988 -35.17117039 7.19410875 -47.75 7.1875 C-48.48233856 7.18831573 -49.21467712 7.18913147 -49.96920776 7.18997192 C-56.61090199 7.189134 -63.25991064 7.14349157 -69.890625 6.73828125 C-70.64891602 6.69356689 -71.40720703 6.64885254 -72.18847656 6.6027832 C-74 6 -74 6 -75.11322021 3.96232605 C-75.40585754 3.31475845 -75.69849487 2.66719086 -76 2 C-74.90911324 2.00666183 -74.90911324 2.00666183 -73.79618835 2.01345825 C-66.89776498 2.05375408 -59.99935949 2.08409479 -53.1008482 2.10362434 C-49.55538037 2.11400264 -46.01001087 2.12805106 -42.46459961 2.15087891 C-38.37613045 2.17703461 -34.28776242 2.18652192 -30.19921875 2.1953125 C-28.94356613 2.20563507 -27.68791351 2.21595764 -26.39421082 2.22659302 C-19.86313749 2.2274149 -13.7818993 1.83725064 -7.39533997 0.43063354 C-4.88221426 -0.02117549 -2.54788583 -0.07175445 0 0 Z " fill="#1F8CB5" transform="translate(81,449)"/>
<path d="M0 0 C1.33320679 -0.02777514 2.66659713 -0.04673341 4 -0.0625 C4.7425 -0.07410156 5.485 -0.08570313 6.25 -0.09765625 C9 0 9 0 12.64135742 0.49780273 C16.93844106 1.04599199 21.16077903 1.14475453 25.48828125 1.1328125 C26.27212692 1.13376923 27.0559726 1.13472595 27.86357117 1.13571167 C29.51150595 1.13638774 31.15944348 1.13457376 32.80737305 1.13037109 C35.29547281 1.12503651 37.78339029 1.13032452 40.27148438 1.13671875 C47.83477721 1.13917843 55.29647776 1.08104999 62.81738281 0.16552734 C65.1203732 -0.00912897 67.15479354 0.17131097 69.4375 0.5 C72.50258032 0.93018671 74.16373138 1.06360073 77 0 C77 0.66 77 1.32 77 2 C69.14339227 5.22131548 62.16419927 5.4085565 53.734375 5.328125 C52.3691631 5.32506013 51.00394805 5.32318955 49.63873291 5.32244873 C46.79451295 5.31787431 43.95058065 5.30355578 41.10644531 5.28125 C37.46950083 5.2528619 33.83278073 5.24202406 30.19573593 5.2375679 C26.70858711 5.23240526 23.22149392 5.21788016 19.734375 5.203125 C18.4322406 5.19887512 17.1301062 5.19462524 15.78851318 5.19024658 C14.57665344 5.18063904 13.3647937 5.17103149 12.11621094 5.16113281 C11.0530365 5.15430481 9.98986206 5.14747681 8.89447021 5.14044189 C6.15988406 5.0077577 3.66317877 4.61611482 1 4 C0.67 2.68 0.34 1.36 0 0 Z " fill="#5EA5C6" transform="translate(0,442)"/>
<path d="M0 0 C0 0.66 0 1.32 0 2 C-6.10673212 3.48363123 -11.74106468 4.15033938 -18.02124023 3.99853516 C-20.83949083 3.99992107 -23.54190309 4.20154692 -26.34375 4.48828125 C-33.24179589 5.09274919 -40.11035234 5.15141655 -47.02783203 5.13037109 C-49.1293045 5.12498898 -51.23056502 5.130364 -53.33203125 5.13671875 C-70.86143341 5.15064776 -70.86143341 5.15064776 -75 4 C-75.66 3.01 -76.32 2.02 -77 1 C-76.39802292 1.00222061 -75.79604584 1.00444122 -75.17582703 1.00672913 C-68.86453856 1.02899189 -62.55326139 1.04399348 -56.24194336 1.05493164 C-53.89200385 1.05993529 -51.54206741 1.06674027 -49.19213867 1.07543945 C-45.79865761 1.08767989 -42.405218 1.09326815 -39.01171875 1.09765625 C-37.97480392 1.10281754 -36.9378891 1.10797882 -35.86955261 1.11329651 C-29.98492164 1.11374089 -24.21533429 0.83550243 -18.36238098 0.21531677 C-15.23992368 -0.06927637 -12.13347614 0 -9 0 C-8.113125 -0.185625 -7.22625 -0.37125 -6.3125 -0.5625 C-3.83606542 -1.03101465 -2.36684269 -0.78894756 0 0 Z " fill="#1587B3" transform="translate(83,298)"/>
<path d="M0 0 C4.26225433 1.52223369 6.03556029 3.99836356 8 8 C8.44605608 12.87230485 7.69104852 16.07860197 4.75 20 C2.00691925 21.99496782 0.3429554 22.71346097 -3 23 C-3.06058594 22.33613281 -3.12117187 21.67226562 -3.18359375 20.98828125 C-3.26738281 20.10527344 -3.35117188 19.22226563 -3.4375 18.3125 C-3.56511719 16.93578125 -3.56511719 16.93578125 -3.6953125 15.53125 C-3.93295486 12.94215303 -3.93295486 12.94215303 -4.8125 10.3125 C-5.12284889 6.4848637 -3.06585714 4.15954621 -1 1 C-0.67 0.67 -0.34 0.34 0 0 Z " fill="#6BD408" transform="translate(197,232)"/>
<path d="M0 0 C0.99 1.98 0.99 1.98 2 4 C-6.93712731 6.7358553 -15.18164518 7.14924861 -24.50390625 7.1328125 C-26.29887794 7.13424759 -26.29887794 7.13424759 -28.13011169 7.13571167 C-30.65241549 7.13639032 -33.17472107 7.13455802 -35.69702148 7.13037109 C-39.55261155 7.12501374 -43.40808539 7.13032923 -47.26367188 7.13671875 C-49.71875026 7.136058 -52.17382857 7.13477692 -54.62890625 7.1328125 C-55.77903702 7.13483673 -56.92916779 7.13686096 -58.114151 7.13894653 C-59.7312925 7.13421829 -59.7312925 7.13421829 -61.38110352 7.12939453 C-62.3237355 7.12859894 -63.26636749 7.12780334 -64.23756409 7.12698364 C-67.2218375 6.98980257 -70.06505097 6.54505013 -73 6 C-69.19392073 3.46261382 -66.20726119 3.78154104 -61.80859375 3.875 C-60.98988297 3.88257324 -60.17117218 3.89014648 -59.32765198 3.89794922 C-55.83674694 3.93037639 -52.34631773 3.98556204 -48.85571289 4.04101562 C-37.42884277 4.20685963 -26.33978757 3.78753889 -15.00662231 2.26782227 C-12.89729952 1.98629265 -10.78593294 1.72650982 -8.67358398 1.46875 C-5.73784035 1.09414857 -2.88863907 0.6318898 0 0 Z " fill="#248DB7" transform="translate(79,140)"/>
<path d="M0 0 C2.25 0.125 2.25 0.125 5 1 C7.79662627 4.17454874 8.90029516 6.30206615 9.5 10.5 C8.77870159 15.54908885 6.662777 18.53284383 2.875 21.875 C1 23 1 23 -1 23 C-4.46067416 7.92134831 -4.46067416 7.92134831 -1.5 2 C-1.005 1.34 -0.51 0.68 0 0 Z " fill="#6BD408" transform="translate(196,386)"/>
<path d="M0 0 C2.25 0.125 2.25 0.125 5 1 C7.79662627 4.17454874 8.90029516 6.30206615 9.5 10.5 C8.78692318 15.49153773 6.51051647 18.48948353 3 22 C2.01 22 1.02 22 0 22 C-0.13277344 20.94039062 -0.26554688 19.88078125 -0.40234375 18.7890625 C-0.58053875 17.40101721 -0.7589346 16.01299769 -0.9375 14.625 C-1.02451172 13.92632812 -1.11152344 13.22765625 -1.20117188 12.5078125 C-1.66318128 8.63216425 -1.66318128 8.63216425 -3 5 C-1.5625 2.375 -1.5625 2.375 0 0 Z " fill="#6AD309" transform="translate(196,79)"/>
<path d="M0 0 C0.75539063 0.0707373 1.51078125 0.14147461 2.2890625 0.21435547 C12.56219454 1.06994858 22.78285156 1.15293513 33.0859375 1.13037109 C35.99484467 1.1250095 38.90359749 1.13034818 41.8125 1.13671875 C50.98851432 1.13965051 60.07685725 1.01842834 69.22265625 0.21435547 C71.82889898 0.01320558 74.38740867 -0.03775075 77 0 C74.23603442 2.76396558 71.85774979 2.97835631 67.98828125 3.0234375 C66.54927292 3.00836935 65.11031182 2.98076126 63.671875 2.9375 C61.38611689 2.99096803 59.25087429 3.20462684 56.98779297 3.4934082 C51.82529877 4.07786231 46.71483423 4.16166124 41.5234375 4.16796875 C40.55395172 4.17129715 39.58446594 4.17462555 38.58560181 4.17805481 C36.55023672 4.18308599 34.51486349 4.18546432 32.47949219 4.18530273 C29.37681548 4.18749872 26.27448945 4.20572091 23.171875 4.22460938 C21.18489704 4.22754227 19.1979174 4.22952776 17.2109375 4.23046875 C16.29097992 4.23765427 15.37102234 4.24483978 14.42318726 4.25224304 C9.2210925 4.23387521 4.92579869 3.6964212 0 2 C0 1.34 0 0.68 0 0 Z " fill="#268EB7" transform="translate(4,296)"/>
<path d="M0 0 C4.52300338 -0.07295167 8.86621085 -0.02712769 13.359375 0.49609375 C19.68206661 1.15531785 25.98786804 1.15025926 32.33984375 1.13037109 C34.36466013 1.12502729 36.38925296 1.13033908 38.4140625 1.13671875 C45.47394303 1.1297973 52.43350405 0.9169841 59.46044922 0.22045898 C62.98830038 -0.08579458 66.46129865 -0.06805195 70 0 C70 0.66 70 1.32 70 2 C51.12053982 4.22441165 32.10055492 4.56785312 13.125 3.5625 C12.01016235 3.50376709 12.01016235 3.50376709 10.87280273 3.44384766 C7.17032846 3.2207504 3.61440945 2.8433622 0 2 C0 1.34 0 0.68 0 0 Z " fill="#5FA5C6" transform="translate(1,135)"/>
<path d="M0 0 C0.99 1.98 0.99 1.98 2 4 C-10.41873287 7.38727549 -22.57273652 7.39844604 -35.37182617 7.28125 C-38.82286393 7.24990587 -42.27344278 7.24024558 -45.72460938 7.234375 C-47.94792217 7.22520905 -50.17123039 7.21483459 -52.39453125 7.203125 C-53.91987236 7.19675018 -53.91987236 7.19675018 -55.47602844 7.19024658 C-69.13206939 7.05525051 -69.13206939 7.05525051 -74 6 C-74.33 5.34 -74.66 4.68 -75 4 C-73.30423828 4.12568359 -73.30423828 4.12568359 -71.57421875 4.25390625 C-59.05118516 5.07935405 -46.71117543 4.83548938 -34.1796875 4.25390625 C-29.51535065 4.03960664 -24.87484838 3.97833319 -20.20654297 4.00708008 C-17.16604896 3.99732412 -14.15519329 3.80328553 -11.125 3.5625 C-10.05507812 3.48128906 -8.98515625 3.40007812 -7.8828125 3.31640625 C-5.46813058 3.05138019 -3.28967459 2.80404852 -1 2 C-0.67 1.34 -0.34 0.68 0 0 Z " fill="#3192BA" transform="translate(78,445)"/>
<path d="M0 0 C0 0.66 0 1.32 0 2 C-0.886875 1.95875 -1.77375 1.9175 -2.6875 1.875 C-6.18722723 1.86189241 -9.45504927 2.38446743 -12.8984375 2.9921875 C-19.94523644 4.10195845 -26.81436643 4.30590618 -33.9375 4.25 C-35.76921753 4.24202393 -35.76921753 4.24202393 -37.63793945 4.23388672 C-54.9466964 4.05140967 -54.9466964 4.05140967 -62 2 C-62.33 1.34 -62.66 0.68 -63 0 C-57.31876427 -0.10065181 -51.72281026 -0.03088775 -46.0625 0.5 C-36.67924221 1.33993356 -27.39518321 1.02262148 -18 0.5625 C-17.1742749 0.52334473 -16.3485498 0.48418945 -15.49780273 0.44384766 C-14.32326538 0.38076416 -14.32326538 0.38076416 -13.125 0.31640625 C-12.42632812 0.27974854 -11.72765625 0.24309082 -11.0078125 0.20532227 C-8.96782323 0.04877847 -8.96782323 0.04877847 -6.9140625 -0.54711914 C-4.39339582 -1.14352688 -2.48378177 -0.62094544 0 0 Z " fill="#5CA4C6" transform="translate(68,289)"/>
<path d="M0 0 C0 0.66 0 1.32 0 2 C-14.49636031 5.99899595 -14.49636031 5.99899595 -21.35864258 4.47680664 C-24.12735965 3.97700958 -26.51791956 3.9752051 -29.32421875 4.12109375 C-30.34459229 4.16959473 -31.36496582 4.2180957 -32.41625977 4.26806641 C-33.49576904 4.32397949 -34.57527832 4.37989258 -35.6875 4.4375 C-43.48033913 4.79349222 -51.26070232 5.11240427 -59.0625 5.125 C-59.75625732 5.12943115 -60.45001465 5.1338623 -61.16479492 5.13842773 C-65.86783029 5.12519271 -70.37166969 4.80095968 -75 4 C-75.33 3.34 -75.66 2.68 -76 2 C-75.41943344 2.00222061 -74.83886688 2.00444122 -74.2407074 2.00672913 C-68.12344995 2.02908744 -62.00620436 2.04403205 -55.88891602 2.05493164 C-53.61482267 2.05991833 -51.34073245 2.06671009 -49.06665039 2.07543945 C-32.05210575 2.15046328 -32.05210575 2.15046328 -15.07055664 1.21655273 C-12 1 -12 1 -8.29077148 1.03149414 C-5.28705988 1.00274729 -2.9253692 0 0 0 Z " fill="#439ABF" transform="translate(78,291)"/>
<path d="M0 0 C1 3 1 3 -0.0625 5.875 C-1.20949721 9.69832402 -0.47005727 10.40652668 1 14 C1.18525825 17.3397946 1.11679713 20.65830435 1 24 C-2.85856124 23.03535969 -3.95796599 22.05907482 -6.3125 18.75 C-8.04004945 15.34425966 -8.65452707 12.84534654 -8 9 C-5.8669997 5.11489231 -3.73506748 2.40111481 0 0 Z " fill="#1AB154" transform="translate(187,231)"/>
<path d="M0 0 C1.42944945 2.35438733 2.08661261 3.48032433 1.625 6.25 C1.315625 7.11625 1.315625 7.11625 1 8 C-0.051875 7.979375 -1.10375 7.95875 -2.1875 7.9375 C-5.80170018 7.88233273 -5.80170018 7.88233273 -8.5 8.5 C-12.38968065 9.27793613 -16.26443306 9.40663437 -20.14135742 8.49829102 C-24.18190628 7.79398149 -28.14495563 7.87746363 -32.23828125 7.90234375 C-33.11904831 7.9037587 -33.99981537 7.90517365 -34.90727234 7.90663147 C-37.70905003 7.91221063 -40.51074662 7.92475929 -43.3125 7.9375 C-45.21679572 7.94251769 -47.12109269 7.94708013 -49.02539062 7.95117188 C-53.68362481 7.96217323 -58.34179867 7.97942351 -63 8 C-63 7.34 -63 6.68 -63 6 C-61.998479 6.00523682 -60.99695801 6.01047363 -59.96508789 6.01586914 C-56.16106095 6.03430834 -52.35703771 6.04557034 -48.55297852 6.05493164 C-46.92308889 6.05988474 -45.29320352 6.06664905 -43.66333008 6.07543945 C-34.99103423 6.12095629 -26.34782278 6.05750964 -17.6875 5.5625 C-16.65805016 5.50480186 -16.65805016 5.50480186 -15.60780334 5.44593811 C-10.2919067 5.10646062 -5.16096282 4.30609133 0 3 C0 2.01 0 1.02 0 0 Z " fill="#4199BE" transform="translate(77,134)"/>
<path d="M0 0 C0.66 0.33 1.32 0.66 2 1 C1.319375 1.86625 0.63875 2.7325 -0.0625 3.625 C-2.40279049 7.70163504 -2.00964405 8.54073877 -1 13 C-0.8934602 16.66801308 -0.94124734 20.33122297 -1 24 C-4.36718588 22.60668171 -6.17008883 21.17296524 -8 18 C-8.8377696 12.93564502 -8.81501692 8.42627961 -6.25 3.9375 C-4.18519727 2.15947542 -2.58301904 0.86100635 0 0 Z " fill="#1AB153" transform="translate(188,384)"/>
<path d="M0 0 C0.66 0.33 1.32 0.66 2 1 C1.2884375 1.5878125 1.2884375 1.5878125 0.5625 2.1875 C-1.40410249 4.46875889 -1.70952037 6.02258382 -2 9 C-1.84144531 9.59425781 -1.68289062 10.18851563 -1.51953125 10.80078125 C-0.8810604 13.50348116 -0.90447539 15.97593311 -0.9375 18.75 C-0.94652344 19.73484375 -0.95554688 20.7196875 -0.96484375 21.734375 C-0.97644531 22.48203125 -0.98804688 23.2296875 -1 24 C-4.36718588 22.60668171 -6.17008883 21.17296524 -8 18 C-8.8377696 12.93564502 -8.81501692 8.42627961 -6.25 3.9375 C-4.18519727 2.15947542 -2.58301904 0.86100635 0 0 Z " fill="#19B153" transform="translate(188,77)"/>
<path d="M0 0 C0 0.66 0 1.32 0 2 C-7.85660773 5.22131548 -14.83580073 5.4085565 -23.265625 5.328125 C-24.6308369 5.32506013 -25.99605195 5.32318955 -27.36126709 5.32244873 C-30.20548705 5.31787431 -33.04941935 5.30355578 -35.89355469 5.28125 C-39.53049917 5.2528619 -43.16721927 5.24202406 -46.80426407 5.2375679 C-50.29141289 5.23240526 -53.77850608 5.21788016 -57.265625 5.203125 C-58.5677594 5.19887512 -59.8698938 5.19462524 -61.21148682 5.19024658 C-62.42334656 5.18063904 -63.6352063 5.17103149 -64.88378906 5.16113281 C-65.9469635 5.15430481 -67.01013794 5.14747681 -68.10552979 5.14044189 C-70.84011594 5.0077577 -73.33682123 4.61611482 -76 4 C-76 3.34 -76 2.68 -76 2 C-74.50011039 1.9723381 -73.00006131 1.9533139 -71.5 1.9375 C-70.6646875 1.92589844 -69.829375 1.91429687 -68.96875 1.90234375 C-66 2 -66 2 -62.53125 2.49609375 C-56.38170783 3.31115442 -50.19179274 3.14769952 -44 3.125 C-42.70868164 3.12234131 -41.41736328 3.11968262 -40.08691406 3.11694336 C-31.01864526 3.07190984 -22.03218031 2.82213113 -13 2 C-12.04867187 1.91621094 -11.09734375 1.83242188 -10.1171875 1.74609375 C-6.66141215 1.40484948 -3.31147866 0 0 0 Z " fill="#52A0C3" transform="translate(77,442)"/>
<path d="M0 0 C1.65 0.33 3.3 0.66 5 1 C4.34 1.66 3.68 2.32 3 3 C1.61059446 9.39126549 2.06908483 15.58702881 3 22 C1.68 22.33 0.36 22.66 -1 23 C-4.46067416 7.92134831 -4.46067416 7.92134831 -1.5 2 C-1.005 1.34 -0.51 0.68 0 0 Z " fill="#5FCF12" transform="translate(196,386)"/>
<path d="M0 0 C0 0.66 0 1.32 0 2 C-2.1320731 2.23761056 -4.26418631 2.47486601 -6.39648438 2.71044922 C-8.04398965 2.89367702 -9.69117465 3.07982865 -11.33789062 3.27001953 C-27.58951558 5.11617693 -43.66296876 5.2241729 -60 5 C-60 4.67 -60 4.34 -60 4 C-58.42871338 3.92483154 -58.42871338 3.92483154 -56.82568359 3.84814453 C-52.87042472 3.65716467 -48.91564282 3.45746375 -44.9609375 3.25537109 C-43.26215922 3.16972649 -41.56326616 3.08632346 -39.86425781 3.00537109 C-30.45234354 2.55533269 -21.21448405 1.93517032 -11.90625 0.41015625 C-7.89149515 -0.15644222 -4.04688701 -0.13954783 0 0 Z " fill="#1687B3" transform="translate(82,451)"/>
<path d="M0 0 C-0.99 0.33 -1.98 0.66 -3 1 C-5.18946198 5.4941588 -5.11459943 9.58262489 -5.00390625 14.453125 C-4.99840617 18.03917627 -5.47494223 21.45586005 -6 25 C-6.66 25 -7.32 25 -8 25 C-8.39074108 22.10551028 -8.76301611 19.21060558 -9.125 16.3125 C-9.23714844 15.49587891 -9.34929687 14.67925781 -9.46484375 13.83789062 C-10.41936302 5.97901528 -10.41936302 5.97901528 -8 2 C-4.77208445 -0.1519437 -3.71599191 -0.20086443 0 0 Z " fill="#30BC3D" transform="translate(195,384)"/>
<path d="M0 0 C0.66 0 1.32 0 2 0 C1.5359375 0.7425 1.5359375 0.7425 1.0625 1.5 C-1.93973709 8.56408726 -0.78581901 14.79768862 1 22 C-0.32 22.33 -1.64 22.66 -3 23 C-3.06058594 22.33613281 -3.12117187 21.67226562 -3.18359375 20.98828125 C-3.26738281 20.10527344 -3.35117188 19.22226563 -3.4375 18.3125 C-3.56511719 16.93578125 -3.56511719 16.93578125 -3.6953125 15.53125 C-3.93295486 12.94215303 -3.93295486 12.94215303 -4.8125 10.3125 C-5.12284889 6.4848637 -3.06585714 4.15954621 -1 1 C-0.67 0.67 -0.34 0.34 0 0 Z " fill="#55CB1B" transform="translate(197,232)"/>
<path d="M0 0 C0.66 0.33 1.32 0.66 2 1 C2 4.01071041 1.49461885 6.07464588 0.625 8.9375 C0.36976563 9.79214844 0.11453125 10.64679688 -0.1484375 11.52734375 C-0.93500784 13.81128423 -1.86434465 15.87188062 -3 18 C-3.39143394 16.25360243 -3.76254287 14.50264082 -4.125 12.75 C-4.33382812 11.77546875 -4.54265625 10.8009375 -4.7578125 9.796875 C-5.0202996 6.76557234 -4.61988849 5.51982654 -3 3 C-2.34 3 -1.68 3 -1 3 C-0.67 2.01 -0.34 1.02 0 0 Z " fill="#2DBB3F" transform="translate(190,77)"/>
<path d="M0 0 C1.32 0.33 2.64 0.66 4 1 C3.01 1.33 2.02 1.66 1 2 C0.77268784 8.93302093 1.57997892 15.2168636 3 22 C2.01 22 1.02 22 0 22 C-0.13277344 20.94039062 -0.26554688 19.88078125 -0.40234375 18.7890625 C-0.58053875 17.40101721 -0.7589346 16.01299769 -0.9375 14.625 C-1.02451172 13.92632812 -1.11152344 13.22765625 -1.20117188 12.5078125 C-1.66318128 8.63216425 -1.66318128 8.63216425 -3 5 C-1.5625 2.375 -1.5625 2.375 0 0 Z " fill="#5ACD16" transform="translate(196,79)"/>
<path d="M0 0 C1.32 0.33 2.64 0.66 4 1 C3.33484375 1.46921875 2.6696875 1.9384375 1.984375 2.421875 C-0.98507504 6.2798219 -0.21076426 9.56922024 0.25 14.25 C0.31574219 15.09046875 0.38148438 15.9309375 0.44921875 16.796875 C0.61382269 18.86618164 0.80439525 20.93339331 1 23 C0.34 23 -0.32 23 -1 23 C-4.46067416 7.92134831 -4.46067416 7.92134831 -1.5 2 C-1.005 1.34 -0.51 0.68 0 0 Z " fill="#55CA1C" transform="translate(196,386)"/>
<path d="M0 0 C0 0.99 0 1.98 0 3 C-1.19625 2.979375 -2.3925 2.95875 -3.625 2.9375 C-6.20185277 2.93297921 -8.44346287 3.07391048 -11 3.5 C-14.72844133 4.12140689 -18.22227607 4.06513317 -22 4 C-22 3.67 -22 3.34 -22 3 C-19.27172635 2.49465273 -16.54255306 1.99556155 -13.8125 1.5 C-13.04357422 1.35691406 -12.27464844 1.21382813 -11.48242188 1.06640625 C-7.60578227 0.36761285 -3.958529 -0.19039017 0 0 Z " fill="#258DB7" transform="translate(81,449)"/>
<path d="M0 0 C1.32 0.33 2.64 0.66 4 1 C3.37755401 2.27208622 2.75193233 3.54261882 2.125 4.8125 C1.77695313 5.52019531 1.42890625 6.22789062 1.0703125 6.95703125 C0 9 0 9 -2 12 C-3.6442351 7.06729471 -2.18615592 4.45975807 0 0 Z " fill="#2EBB3F" transform="translate(188,231)"/>
<path d="M0 0 C0 3.2002215 -0.63242392 5.61483471 -1.5 8.6875 C-1.7784375 9.68136719 -2.056875 10.67523438 -2.34375 11.69921875 C-2.5603125 12.45847656 -2.776875 13.21773437 -3 14 C-3.33 14 -3.66 14 -4 14 C-4.63019694 5.96498906 -4.63019694 5.96498906 -2 1.9375 C-1.34 1.298125 -0.68 0.65875 0 0 Z " fill="#35BE38" transform="translate(191,81)"/>
<path d="M0 0 C1.80411967 2.75924185 2.0127245 3.88972103 1.625 7.25 C1.41875 8.1575 1.2125 9.065 1 10 C0.34 9.34 -0.32 8.68 -1 8 C-0.96712417 5.27130593 -0.43602229 2.7033382 0 0 Z " fill="#60D010" transform="translate(196,236)"/>
</svg>
