<svg width="96" height="96" viewBox="0 0 56 56" fill="none" xmlns="http://www.w3.org/2000/svg" style="filter: drop-shadow(0 2px 4px rgba(0,0,0,0.45))">
  <!-- Cast shadow -->
  <rect x="6" y="20" width="46" height="18" rx="3" fill="black" opacity="0.18" />
  <!-- Main body -->
  <rect x="4" y="18" width="46" height="18" rx="3" fill="#7b8fa3" />
  <!-- Top face highlight -->
  <path d="M7 18 H47 Q50 18 50 21 V24 H4 V21 Q4 18 7 18Z" fill="white" opacity="0.18" />
  <!-- Right edge depth -->
  <path d="M46 18 H47 Q50 18 50 21 V33 Q50 36 47 36 H46 V18Z" fill="black" opacity="0.12" />
  <!-- Bottom edge -->
  <rect x="4" y="32" width="46" height="4" rx="0 0 3 3" fill="black" opacity="0.08" />
  <!-- Power LED -->
  <circle cx="9" cy="27" r="2.2" fill="#4caf50" />
  <circle cx="8.5" cy="26.5" r="0.8" fill="white" opacity="0.45" />
  <!-- Brand line -->
  <rect x="13" y="21" width="10" height="2" rx="1" fill="white" opacity="0.15" />
  <!-- Port row - 8 ethernet ports -->
  <rect x="8" y="29" width="4.2" height="5" rx="0.8" fill="black" opacity="0.3" />
  <rect x="8.3" y="29.3" width="3.6" height="4.4" rx="0.5" fill="white" opacity="0.12" />
  <rect x="13.5" y="29" width="4.2" height="5" rx="0.8" fill="black" opacity="0.3" />
  <rect x="13.8" y="29.3" width="3.6" height="4.4" rx="0.5" fill="white" opacity="0.12" />
  <rect x="19" y="29" width="4.2" height="5" rx="0.8" fill="black" opacity="0.3" />
  <rect x="19.3" y="29.3" width="3.6" height="4.4" rx="0.5" fill="white" opacity="0.12" />
  <rect x="24.5" y="29" width="4.2" height="5" rx="0.8" fill="black" opacity="0.3" />
  <rect x="24.8" y="29.3" width="3.6" height="4.4" rx="0.5" fill="white" opacity="0.12" />
  <rect x="30" y="29" width="4.2" height="5" rx="0.8" fill="black" opacity="0.3" />
  <rect x="30.3" y="29.3" width="3.6" height="4.4" rx="0.5" fill="white" opacity="0.12" />
  <rect x="35.5" y="29" width="4.2" height="5" rx="0.8" fill="black" opacity="0.3" />
  <rect x="35.8" y="29.3" width="3.6" height="4.4" rx="0.5" fill="white" opacity="0.12" />
  <rect x="41" y="29" width="4.2" height="5" rx="0.8" fill="black" opacity="0.3" />
  <rect x="41.3" y="29.3" width="3.6" height="4.4" rx="0.5" fill="white" opacity="0.12" />
  <!-- Port status LEDs -->
  <circle cx="10.1" cy="22.5" r="1" fill="#4caf50" opacity="0.8" />
  <circle cx="15.6" cy="22.5" r="1" fill="#4caf50" opacity="0.6" />
  <circle cx="21.1" cy="22.5" r="1" fill="#ffab40" opacity="0.6" />
  <circle cx="26.6" cy="22.5" r="1" fill="#4caf50" opacity="0.5" />
  <circle cx="32.1" cy="22.5" r="1" fill="white" opacity="0.15" />
  <circle cx="37.6" cy="22.5" r="1" fill="white" opacity="0.15" />
  <circle cx="43.1" cy="22.5" r="1" fill="white" opacity="0.15" />
  <!-- Console port -->
  <rect x="46" y="25" width="2.5" height="3" rx="0.5" fill="white" opacity="0.15" />
</svg>
